# 3ds Max Wavefront OBJ Exporter v0.99 - (c)2007 guruware
# File Created: 26.05.2023 00:18:58

mtllib CentroPokemon.mtl

#
# object PokÃ_mon_Center
#

v  36.0000 42.4180 4.0000
v  36.0000 42.4180 16.0000
v  36.0000 32.0000 16.0000
v  36.0000 32.0000 4.0000
v  18.0000 32.0000 20.0000
v  32.0000 32.0000 20.0000
v  32.0000 42.4180 20.0000
v  18.0000 42.4180 20.0000
v  -36.0000 32.0000 16.0000
v  -36.0000 42.4180 16.0000
v  -36.0000 42.4180 4.0000
v  -36.0000 32.0000 4.0000
v  -32.0000 42.4180 20.0000
v  -32.0000 32.0000 20.0000
v  -18.0000 32.0000 20.0000
v  -18.0000 42.4180 20.0000
v  9.5996 38.2559 29.9453
v  9.5996 44.7129 29.9453
v  0.0000 38.2559 29.9453
v  0.0000 44.7129 29.9453
v  -9.5996 38.2559 29.9453
v  -9.5996 44.7129 29.9453
v  8.8691 48.3867 29.9453
v  6.7871 51.5000 29.9453
v  3.6738 53.5801 29.9453
v  -8.8691 48.3867 29.9453
v  -6.7871 51.5000 29.9453
v  -3.6738 53.5801 29.9453
v  0.0000 54.3125 29.9453
v  12.0000 38.2285 29.9453
v  12.0000 45.4668 29.9453
v  11.0859 50.0586 29.9453
v  8.4844 53.9531 29.9453
v  4.5918 56.5547 29.9453
v  0.0000 57.4668 29.9453
v  -4.5918 56.5547 29.9453
v  -8.4844 53.9531 29.9453
v  -11.0859 50.0586 29.9453
v  -12.0000 45.4668 29.9453
v  -12.0000 38.2285 29.9453
v  0.0000 52.0000 -27.0762
v  0.0000 52.0000 -32.0000
v  -31.9981 52.0000 -27.0762
v  -36.0000 52.0000 -32.0000
v  -37.0762 52.0000 -21.9981
v  -42.0000 52.0000 -26.0000
v  -37.0762 52.0000 15.9980
v  -42.0000 52.0000 20.0000
v  -31.9981 52.0000 21.0762
v  -36.0000 52.0000 26.0000
v  -32.6562 60.0000 -18.4082
v  -32.6562 60.0000 12.4082
v  -28.4082 60.0000 -22.6563
v  -28.4082 60.0000 16.6562
v  0.0000 60.0000 -22.6563
v  0.0000 60.0000 16.6562
v  28.4082 60.0000 -22.6563
v  28.4082 60.0000 16.6562
v  32.6562 60.0000 -18.4082
v  32.6562 60.0000 12.4082
v  36.0000 52.0000 -32.0000
v  31.9981 52.0000 -27.0762
v  42.0000 52.0000 -26.0000
v  37.0762 52.0000 -21.9981
v  42.0000 52.0000 20.0000
v  37.0762 52.0000 15.9980
v  36.0000 52.0000 26.0000
v  31.9981 52.0000 21.0762
v  0.0000 57.4668 -10.0000
v  4.5918 56.5547 -10.0000
v  8.4844 53.9531 -10.0000
v  11.0859 50.0586 -10.0000
v  -12.0000 45.4668 -10.0000
v  -11.0859 50.0586 -10.0000
v  -8.4844 53.9531 -10.0000
v  -4.5918 56.5547 -10.0000
v  -18.0000 46.0000 26.0000
v  -10.0000 32.0000 26.0000
v  0.0000 46.0000 26.0000
v  0.0000 32.0000 26.0000
v  18.0000 46.0000 26.0000
v  10.0000 32.0000 26.0000
v  18.0000 52.0000 26.0000
v  0.0000 52.0000 26.0000
v  0.0000 52.0000 21.0762
v  -18.0000 52.0000 26.0000
v  36.0000 32.0000 -28.0000
v  36.0000 46.0000 -28.0000
v  40.0000 46.0000 -24.0000
v  40.0000 32.0000 -24.0000
v  40.0000 32.0000 4.0000
v  40.0000 46.0000 4.0000
v  36.0000 46.0000 4.0000
v  36.0000 46.0000 16.0000
v  40.0000 32.0000 18.0000
v  40.0000 2.0000 4.0000
v  40.0000 2.0000 18.0000
v  18.0000 32.0000 22.0000
v  36.0000 32.0000 22.0000
v  36.0000 2.0000 22.0000
v  40.0000 2.0000 -24.0000
v  18.0000 2.0000 22.0000
v  12.0000 38.2285 -10.0000
v  12.0000 45.4668 -10.0000
v  -12.0000 38.2285 -10.0000
v  -18.0000 37.8047 30.2246
v  -18.0000 32.5977 30.2246
v  -12.0000 32.5977 36.9883
v  -12.0000 37.8047 36.9883
v  12.0000 37.8047 36.9883
v  12.0000 32.5977 36.9883
v  18.0000 32.5977 30.2246
v  18.0000 37.8047 30.2246
v  -32.0000 46.0000 20.0000
v  -18.0000 46.0000 20.0000
v  -36.0000 46.0000 16.0000
v  -40.0000 2.0000 -24.0000
v  -40.0000 32.0000 -24.0000
v  -36.0000 32.0000 -28.0000
v  -35.8424 2.0000 -28.0000
v  -40.0000 46.0000 -24.0000
v  -36.0000 46.0000 -28.0000
v  -40.0000 46.0000 4.0000
v  -40.0000 32.0000 4.0000
v  -36.0000 46.0000 4.0000
v  -40.0000 32.0000 18.0000
v  -40.0000 2.0000 4.0000
v  -40.0000 2.0000 18.0000
v  -36.0000 32.0000 22.0000
v  -36.0000 2.0000 22.0000
v  -18.0000 32.0000 22.0000
v  -18.0000 2.0000 22.0000
v  36.0000 46.0000 -32.0000
v  0.0000 46.0000 -32.0000
v  32.0000 46.0000 20.0000
v  10.0000 32.0000 32.2891
v  10.0176 2.0000 26.0000
v  10.0176 2.0000 32.2891
v  18.0000 2.0000 26.0000
v  18.0000 32.0000 26.0000
v  -10.0000 2.0000 32.2891
v  -10.0000 2.0000 26.0000
v  -10.0000 32.0000 32.2891
v  18.0000 2.0000 -20.4237
v  18.0000 32.0000 -20.4237
v  -18.0000 46.0000 -22.2803
v  -18.0000 32.0000 -22.2803
v  -18.0000 32.0000 26.0000
v  18.0000 37.8047 26.0000
v  18.0000 32.5977 26.0000
v  10.0176 2.0000 14.0000
v  10.0000 32.0000 14.0000
v  -10.0000 2.0000 14.0000
v  -10.0000 32.0000 14.0000
v  -18.0000 32.5977 26.0000
v  -18.0000 37.8047 26.0000
v  -18.0000 2.0000 26.0000
v  18.0000 46.0000 -20.4237
v  -18.0000 2.0000 -22.2803
v  -36.0000 46.0000 26.0000
v  36.0000 2.0000 -28.0000
v  18.0000 46.0000 20.0000
v  -36.0000 46.0000 -32.0000
v  -42.0000 46.0000 -26.0000
v  42.0000 46.0000 -26.0000
v  36.0000 46.0000 26.0000
v  42.0000 46.0000 20.0000
v  -42.0000 46.0000 20.0000
# 168 vertices

vn 1.0000 0.0000 -0.0000
vn 0.0000 0.0000 1.0000
vn 0.7071 0.0000 0.7071
vn -1.0000 0.0000 -0.0000
vn -0.7071 0.0000 0.7071
vn 0.0000 1.0000 -0.0000
vn 0.3828 0.9238 0.0001
vn 0.3828 0.9238 -0.0000
vn 0.7071 0.7071 -0.0000
vn 0.9238 0.3828 -0.0000
vn -0.9808 0.1952 -0.0000
vn -0.9238 0.3828 -0.0000
vn -0.7071 0.7071 -0.0000
vn -0.3828 0.9238 -0.0000
vn 0.7071 0.0000 -0.7071
vn 0.9238 0.0000 0.3828
vn 0.5000 0.7071 0.5000
vn 0.5001 0.7071 0.5000
vn 0.3828 0.0000 0.9238
vn 0.9808 0.1952 -0.0000
vn -0.3828 0.9238 -0.0001
vn 0.7475 0.0000 0.6643
vn -0.7071 0.0000 -0.7071
vn -0.9238 0.0000 0.3828
vn -0.5000 0.7071 0.5000
vn -0.5001 0.7071 0.5000
vn -0.3828 0.0000 0.9238
vn 0.0000 0.4844 -0.8749
vn 0.0000 0.4844 0.8749
vn 0.3828 0.0000 -0.9238
vn 0.0000 0.0000 -1.0000
vn 0.7478 0.0000 0.6639
vn 0.6193 0.0000 0.7852
vn 0.6194 0.0000 0.7851
vn 0.6194 -0.0001 0.7850
vn -1.0000 -0.0006 -0.0000
vn -0.6180 0.0000 0.7862
vn -0.7690 0.5621 -0.3045
vn -0.7690 0.5621 0.3045
vn -0.5768 0.5785 -0.5768
vn -0.5767 0.5787 -0.5767
vn 0.0000 0.4843 -0.8749
vn 0.7690 0.5621 -0.3045
vn 0.5768 0.5784 -0.5768
vn 0.5767 0.5787 -0.5767
vn 0.7690 0.5621 0.3045
vn 0.5767 0.5786 0.5767
vn 0.0000 0.4843 0.8749
vn -0.5767 0.5786 0.5767
vn -0.9238 0.0000 -0.3828
vn -0.3828 0.0000 -0.9238
vn 0.9238 0.0000 -0.3828
# 52 vertex normals

vt 0.8750 0.0000 0.0000
vt 0.9375 0.0000 0.0000
vt 0.9375 -1.0000 0.0000
vt 0.8750 -1.0000 0.0000
vt 1.0000 -2.0000 0.0000
vt 0.0000 -2.0000 0.0000
vt 0.0000 -1.0000 0.0000
vt 1.0000 -1.0000 0.0000
vt 0.0664 -0.7686 0.0000
vt 0.0664 -0.5977 0.0000
vt 0.2969 -0.7686 0.0000
vt 0.2969 -0.5977 0.0000
vt 0.0986 -0.4893 0.0000
vt 0.1406 -0.4268 0.0000
vt 0.2188 -0.3955 0.0000
vt 0.2969 -0.3799 0.0000
vt -0.8350 -0.9580 0.0000
vt -0.8320 -0.9580 0.0000
vt -0.8350 -0.9482 0.0000
vt -0.8320 -0.9473 0.0000
vt -0.8369 -0.9424 0.0000
vt -0.8330 -0.9404 0.0000
vt -0.8398 -0.9375 0.0000
vt -0.8369 -0.9336 0.0000
vt -0.8438 -0.9346 0.0000
vt -0.8428 -0.9297 0.0000
vt -0.8496 -0.9336 0.0000
vt -0.8496 -0.9287 0.0000
vt -0.8545 -0.9346 0.0000
vt -0.8564 -0.9297 0.0000
vt -0.8594 -0.9375 0.0000
vt -0.8623 -0.9336 0.0000
vt -0.8623 -0.9424 0.0000
vt -0.8662 -0.9404 0.0000
vt -0.8633 -0.9482 0.0000
vt -0.8672 -0.9473 0.0000
vt -0.8633 -0.9580 0.0000
vt -0.8672 -0.9580 0.0000
vt 0.0156 -1.9844 0.0000
vt 0.0156 -1.8750 0.0000
vt 0.0781 -1.9844 0.0000
vt 0.0781 -1.8750 0.0000
vt 0.0156 -1.0469 0.0000
vt 0.0156 -1.3125 0.0000
vt 0.0312 -1.0156 0.0000
vt 0.0312 -1.3438 0.0000
vt 0.2812 -1.0156 0.0000
vt 0.2812 -1.3438 0.0000
vt -0.5625 -0.6406 0.0000
vt -0.6562 -0.6406 0.0000
vt -0.5625 -0.6719 0.0000
vt -0.6562 -0.6719 0.0000
vt -0.5625 -0.7031 0.0000
vt -0.6562 -0.7031 0.0000
vt -0.5625 -0.7500 0.0000
vt -0.6562 -0.7500 0.0000
vt -0.6562 -0.8125 0.0000
vt -0.5625 -0.8125 0.0000
vt -0.6562 -0.3906 0.0000
vt -0.6299 -0.6094 0.0000
vt -0.6094 -0.3906 0.0000
vt -0.6094 -0.6094 0.0000
vt 0.0469 -1.8750 0.0000
vt -0.3125 -1.7812 0.0000
vt -0.3125 -1.3906 0.0000
vt -0.2656 -1.3906 0.0000
vt -0.2656 -1.7812 0.0000
vt -0.4492 -1.8320 0.0000
vt -0.4492 -1.9229 0.0000
vt -0.4619 -1.9229 0.0000
vt -0.4619 -1.7979 0.0000
vt -0.0156 -1.7812 0.0000
vt -0.3750 -1.7812 0.0000
vt -0.3750 -1.3906 0.0000
vt -0.0156 -1.3906 0.0000
vt -0.4521 -1.6455 0.0000
vt -0.5205 -1.6455 0.0000
vt -0.5205 -1.5674 0.0000
vt -0.4521 -1.5674 0.0000
vt -0.5059 -1.7744 0.0000
vt -0.5059 -1.7754 0.0000
vt -0.5146 -1.7754 0.0000
vt -0.5156 -1.7744 0.0000
vt -0.4277 -1.9844 0.0000
vt -0.4277 -1.3906 0.0000
vt -0.4121 -1.3906 0.0000
vt -0.4121 -1.9844 0.0000
vt -0.5186 -1.7852 0.0000
vt -0.5186 -1.7764 0.0000
vt -0.5176 -1.7773 0.0000
vt -0.5176 -1.7852 0.0000
vt -0.3438 -1.9844 0.0000
vt -0.3438 -1.3906 0.0000
vt -0.0156 -1.9844 0.0000
vt -0.6562 -0.8594 0.0000
vt -0.5625 -0.8594 0.0000
vt 0.3438 -1.8906 0.0000
vt 0.3438 -1.9844 0.0000
vt 0.4219 -1.9844 0.0000
vt 0.4219 -1.8906 0.0000
vt 0.3906 -1.0156 0.0000
vt 0.3906 -1.2344 0.0000
vt 0.7344 -1.2344 0.0000
vt 0.7344 -1.0156 0.0000
vt 0.1875 -1.8594 0.0000
vt 0.1094 -1.8594 0.0000
vt 0.1094 -1.9844 0.0000
vt 0.1875 -1.9844 0.0000
vt 0.4375 -1.8906 0.0000
vt 0.4375 -1.9844 0.0000
vt 0.9297 -0.0693 0.0000
vt 0.9092 -0.0693 0.0000
vt 0.9111 -0.0898 0.0000
vt 0.9316 -0.0898 0.0000
vt 0.9844 -1.3906 0.0000
vt 0.9844 -1.9844 0.0000
vt 0.7656 -1.9844 0.0000
vt 0.7656 -1.3906 0.0000
vt 0.9111 -0.0879 0.0000
vt 0.9307 -0.0879 0.0000
vt 0.9287 -0.0674 0.0000
vt 0.9082 -0.0674 0.0000
vt -0.0156 -1.3125 0.0000
vt -0.6094 -1.3125 0.0000
vt -0.6094 -1.2969 0.0000
vt -0.0156 -1.2969 0.0000
vt -0.6562 -0.5000 0.0000
vt -0.6094 -0.5000 0.0000
vt 0.4219 -1.9062 0.0000
vt 0.3438 -1.9062 0.0000
vt 0.8438 -0.0898 0.0000
vt 0.8604 -0.0898 0.0000
vt 0.8604 -0.0518 0.0000
vt 0.8438 -0.0518 0.0000
vt 0.7812 -0.0469 0.0000
vt 0.7656 -0.2344 0.0000
vt 0.9844 -0.2344 0.0000
vt 0.9844 -0.0469 0.0000
vt 0.8584 -0.0537 0.0000
vt 0.8418 -0.0537 0.0000
vt 0.8418 -0.0918 0.0000
vt 0.8584 -0.0918 0.0000
vt 0.8574 -0.0898 0.0000
vt 0.8574 -0.0518 0.0000
vt 0.8428 -0.0518 0.0000
vt 0.8428 -0.0898 0.0000
vt -0.5146 -0.0498 0.0000
vt -0.5098 -0.1436 0.0000
vt -0.3457 -0.1484 0.0000
vt -0.3506 -0.0449 0.0000
vt -0.4492 -1.7979 0.0000
vt -0.6562 -0.6094 0.0000
# 152 texture coords

o PokÃ_mon_Center
g PokÃ_mon_Center
usemtl gs_pc_b
s off
f 1/1/1 2/2/1 3/3/1 
f 3/3/1 4/4/1 1/1/1 
f 5/5/2 6/6/2 7/7/2 
f 7/7/2 8/8/2 5/5/2 
f 6/3/3 3/4/3 2/1/3 
f 2/1/3 7/2/3 6/3/3 
f 9/3/4 10/2/4 11/1/4 
f 11/1/4 12/4/4 9/3/4 
f 13/7/2 14/6/2 15/5/2 
f 15/5/2 16/8/2 13/7/2 
f 10/1/5 9/4/5 14/3/5 
f 14/3/5 13/2/5 10/1/5 
usemtl gs_pc_a_
f 17/9/2 18/10/2 19/11/2 
f 18/10/2 20/12/2 19/11/2 
f 19/11/2 20/12/2 21/9/2 
f 20/12/2 22/10/2 21/9/2 
f 18/10/2 23/13/2 20/12/2 
f 23/13/2 24/14/2 20/12/2 
f 20/12/2 24/14/2 25/15/2 
f 22/10/2 20/12/2 26/13/2 
f 20/12/2 27/14/2 26/13/2 
f 27/14/2 20/12/2 28/15/2 
f 20/12/2 29/16/2 28/15/2 
f 25/15/2 29/16/2 20/12/2 
usemtl gs_pc_a
f 17/17/2 30/18/2 18/19/2 
f 30/18/2 31/20/2 18/19/2 
f 18/19/2 31/20/2 23/21/2 
f 31/20/2 32/22/2 23/21/2 
f 23/21/2 32/22/2 24/23/2 
f 32/22/2 33/24/2 24/23/2 
f 24/23/2 33/24/2 25/25/2 
f 33/24/2 34/26/2 25/25/2 
f 25/25/2 34/26/2 29/27/2 
f 34/26/2 35/28/2 29/27/2 
f 29/27/2 35/28/2 28/29/2 
f 35/28/2 36/30/2 28/29/2 
f 28/29/2 36/30/2 27/31/2 
f 36/30/2 37/32/2 27/31/2 
f 27/31/2 37/32/2 26/33/2 
f 37/32/2 38/34/2 26/33/2 
f 26/33/2 38/34/2 22/35/2 
f 38/34/2 39/36/2 22/35/2 
f 22/35/2 39/36/2 21/37/2 
f 39/36/2 40/38/2 21/37/2 
f 41/39/6 42/40/6 43/41/6 
f 42/40/6 44/42/6 43/41/6 
f 43/41/6 44/42/6 45/39/6 
f 44/42/6 46/40/6 45/39/6 
f 45/39/6 46/40/6 47/41/6 
f 46/40/6 48/42/6 47/41/6 
f 47/41/6 48/42/6 49/39/6 
f 48/42/6 50/40/6 49/39/6 
f 51/43/6 52/44/6 53/45/6 
f 52/44/6 54/46/6 53/45/6 
f 53/45/6 54/46/6 55/47/6 
f 54/46/6 56/48/6 55/47/6 
f 55/47/6 56/48/6 57/45/6 
f 56/48/6 58/46/6 57/45/6 
f 57/45/6 58/46/6 59/43/6 
f 58/46/6 60/44/6 59/43/6 
f 42/42/6 41/41/6 61/40/6 
f 41/41/6 62/39/6 61/40/6 
f 61/40/6 62/39/6 63/42/6 
f 62/39/6 64/41/6 63/42/6 
f 63/42/6 64/41/6 65/40/6 
f 64/41/6 66/39/6 65/40/6 
f 65/40/6 66/39/6 67/42/6 
f 66/39/6 68/41/6 67/42/6 
f 69/49/6 35/50/6 70/51/7 
f 35/50/6 34/52/8 70/51/8 
f 70/51/8 34/52/8 71/53/9 
f 34/52/8 33/54/9 71/53/9 
f 71/53/9 33/54/9 72/55/10 
f 33/54/9 32/56/10 72/55/10 
f 73/57/11 39/58/11 74/56/12 
f 39/58/11 38/55/12 74/56/12 
f 74/56/12 38/55/12 75/54/13 
f 38/55/12 37/53/13 75/54/13 
f 75/54/13 37/53/13 76/52/14 
f 37/53/13 36/51/14 76/52/14 
f 77/59/2 78/60/2 79/61/2 
f 78/60/2 80/62/2 79/61/2 
f 79/61/2 80/62/2 81/59/2 
f 80/62/2 82/60/2 81/59/2 
f 83/63/6 68/39/6 84/42/6 
f 68/39/6 85/41/6 84/42/6 
f 84/42/6 85/41/6 86/63/6 
f 85/41/6 49/39/6 86/63/6 
f 87/64/15 88/65/15 89/66/15 
f 89/66/15 90/67/15 87/64/15 
f 1/68/2 4/69/2 91/70/2 
f 91/70/2 92/71/2 1/68/2 
f 91/72/1 90/73/1 89/74/1 
f 89/74/1 92/75/1 91/72/1 
f 1/76/1 93/77/1 94/78/1 
f 94/78/1 2/79/1 1/76/1 
f 91/80/6 4/81/6 3/82/6 
f 3/82/6 95/83/6 91/80/6 
f 96/84/1 91/85/1 95/86/16 
f 95/86/16 97/87/16 96/84/1 
f 98/88/6 99/89/6 6/90/6 
f 6/90/6 5/91/6 98/88/6 
f 99/89/6 95/83/6 3/82/17 
f 3/82/17 6/90/18 99/89/6 
f 99/86/19 100/87/19 97/84/16 
f 97/84/16 95/85/16 99/86/19 
f 101/84/1 90/85/1 91/86/1 
f 91/86/1 96/87/1 101/84/1 
f 100/92/19 99/93/19 98/75/2 
f 98/75/2 102/94/2 100/92/19 
f 103/95/1 104/57/1 31/58/1 
f 31/58/1 30/96/1 103/95/1 
f 40/57/4 39/95/4 73/96/4 
f 73/96/4 105/58/4 40/57/4 
f 31/58/20 104/57/20 72/56/10 
f 72/56/10 32/55/10 31/58/20 
f 35/51/6 69/52/6 76/50/14 
f 76/50/14 36/49/21 35/51/6 
f 106/97/5 107/98/5 108/99/5 
f 108/99/5 109/100/5 106/97/5 
f 110/97/22 111/98/22 112/99/22 
f 112/99/22 113/100/22 110/97/22 
f 106/101/6 109/102/6 110/103/6 
f 110/103/6 113/104/6 106/101/6 
f 109/97/2 108/98/2 111/99/2 
f 111/99/2 110/100/2 109/97/2 
f 114/77/2 13/76/2 16/79/2 
f 16/79/2 115/78/2 114/77/2 
f 116/77/5 10/76/5 13/79/5 
f 13/79/5 114/78/5 116/77/5 
f 117/87/23 118/86/23 119/85/23 
f 119/85/23 120/84/23 117/87/23 
f 121/66/23 122/65/23 119/64/23 
f 119/64/23 118/67/23 121/66/23 
f 11/68/2 123/71/2 124/70/2 
f 124/70/2 12/69/2 11/68/2 
f 121/74/4 118/73/4 124/72/4 
f 124/72/4 123/75/4 121/74/4 
f 116/78/4 125/77/4 11/76/4 
f 11/76/4 10/79/4 116/78/4 
f 9/82/6 12/81/6 124/80/6 
f 124/80/6 126/83/6 9/82/6 
f 126/86/24 124/85/4 127/84/4 
f 127/84/4 128/87/24 126/86/24 
f 9/82/25 126/83/6 129/89/6 
f 129/89/6 14/90/26 9/82/25 
f 128/84/24 130/87/27 129/86/27 
f 129/86/27 126/85/24 128/84/24 
f 124/86/4 118/85/4 117/84/4 
f 117/84/4 127/87/4 124/86/4 
f 131/75/2 129/93/27 130/92/27 
f 130/92/27 132/94/2 131/75/2 
f 83/105/2 84/106/2 79/107/2 
f 79/107/2 81/108/2 83/105/2 
f 53/97/28 55/109/28 41/110/28 
f 41/110/28 43/98/28 53/97/28 
f 58/109/29 56/97/29 85/98/29 
f 85/98/29 68/110/29 58/109/29 
f 14/90/6 129/89/6 131/88/6 
f 131/88/6 15/91/6 14/90/6 
f 133/107/30 134/108/31 42/105/31 
f 42/105/31 61/106/30 133/107/30 
f 7/79/32 2/76/32 94/77/32 
f 94/77/32 135/78/32 7/79/32 
f 136/111/4 82/112/4 137/113/4 
f 137/113/4 138/114/4 136/111/4 
f 136/115/33 138/116/34 139/117/34 
f 139/117/34 140/118/35 136/115/33 
f 141/119/1 142/120/1 78/121/1 
f 78/121/1 143/122/1 141/119/1 
f 144/123/1 145/124/1 140/125/1 
f 140/125/1 139/126/1 144/123/1 
f 146/59/4 147/127/4 148/128/4 
f 148/128/4 77/61/4 146/59/4 
f 149/98/1 113/99/1 112/129/1 
f 112/129/1 150/130/1 149/98/1 
f 151/131/36 137/132/36 82/133/36 
f 82/133/36 152/134/36 151/131/36 
f 153/135/6 142/136/6 137/137/6 
f 137/137/6 151/138/6 153/135/6 
f 154/139/1 78/140/1 142/141/1 
f 142/141/1 153/142/1 154/139/1 
f 155/98/4 107/99/4 106/129/4 
f 106/129/4 156/130/4 155/98/4 
f 148/118/37 157/117/37 141/116/37 
f 141/116/37 143/115/37 148/118/37 
f 158/59/1 81/61/1 140/128/1 
f 140/128/1 145/127/1 158/59/1 
f 159/123/4 157/126/4 148/125/4 
f 148/125/4 147/124/4 159/123/4 
f 151/143/2 152/144/2 154/145/2 
f 154/145/2 153/146/2 151/143/2 
f 84/105/2 86/106/2 77/107/2 
f 77/107/2 79/108/2 84/105/2 
f 86/105/2 50/106/27 160/107/27 
f 160/107/27 77/108/2 86/105/2 
f 156/147/6 106/148/6 113/149/6 
f 113/149/6 149/150/6 156/147/6 
f 51/97/38 45/98/38 47/110/39 
f 47/110/39 52/109/39 51/97/38 
f 53/97/40 43/98/41 45/110/38 
f 45/110/38 51/109/38 53/97/40 
f 57/109/42 62/110/42 41/98/42 
f 41/98/42 55/97/42 57/109/42 
f 59/97/43 64/98/43 62/110/44 
f 62/110/44 57/109/45 59/97/43 
f 60/97/46 66/98/46 64/110/43 
f 64/110/43 59/109/43 60/97/46 
f 58/97/47 68/98/47 66/110/46 
f 66/110/46 60/109/46 58/97/47 
f 54/97/48 49/98/48 85/110/48 
f 85/110/48 56/109/48 54/97/48 
f 52/97/39 47/98/39 49/110/49 
f 49/110/49 54/109/49 52/97/39 
f 87/85/15 90/86/15 101/87/15 
f 101/87/15 161/84/15 87/85/15 
f 8/79/2 7/76/2 135/77/2 
f 135/77/2 162/78/2 8/79/2 
f 46/105/50 44/106/51 163/107/51 
f 163/107/51 164/108/50 46/105/50 
f 61/105/30 63/106/52 165/107/52 
f 165/107/52 133/108/30 61/105/30 
f 65/105/16 67/106/19 166/107/19 
f 166/107/19 167/108/16 65/105/16 
f 168/107/24 160/108/27 50/105/27 
f 50/105/27 48/106/24 168/107/24 
f 63/105/52 65/106/16 167/107/16 
f 167/107/16 165/108/52 63/105/52 
f 48/105/24 46/106/50 164/107/50 
f 164/107/50 168/108/24 48/105/24 
f 134/107/31 163/108/51 44/105/51 
f 44/105/51 42/106/31 134/107/31 
f 67/105/19 83/106/2 81/107/2 
f 81/107/2 166/108/19 67/105/19 
f 123/71/2 11/68/2 125/151/2 
f 92/71/2 93/151/2 1/68/2 
f 77/59/2 148/152/2 78/60/2 
f 140/152/2 81/59/2 82/60/2 
f 50/40/6 86/63/6 49/39/6 
f 83/63/6 67/40/6 68/39/6 
f 119/85/31 87/85/31 161/84/31 
f 161/84/31 120/84/31 119/85/31 
f 122/65/31 88/65/31 87/64/31 
f 87/64/31 119/64/31 122/65/31 
# 244 faces

