# 3ds Max Wavefront OBJ Exporter v0.99 - (c)2007 guruware
# File Created: 26.05.2023 20:53:09

mtllib CentroComercial.mtl

#
# object VentanaIzqCentro
#

v  -10.4588 0.0115 9.0008
v  -8.4218 0.0115 9.0008
v  -9.4403 0.0115 10.7649
v  -11.4773 0.0115 10.7649
v  -12.4958 0.0115 9.0008
v  -12.4958 17.8353 9.0008
v  -10.4588 17.8353 9.0008
v  -11.4773 17.8353 10.7649
v  -9.4403 17.8353 10.7649
v  -8.4218 17.8353 9.0008
# 10 vertices

vn 0.0000 -0.7071 -0.7071
vn 0.7206 -0.5547 -0.4160
vn 0.3962 -0.6100 0.6862
vn -0.3962 -0.6100 0.6862
vn -0.7206 -0.5547 -0.4160
vn -0.7206 0.5547 -0.4160
vn 0.0000 0.7071 -0.7071
vn -0.3962 0.6100 0.6862
vn 0.3962 0.6100 0.6862
vn 0.7206 0.5547 -0.4160
# 10 vertex normals

vt 0.1613 0.5508 0.0000
vt 0.0981 0.5508 0.0000
vt 0.1297 0.5222 0.0000
vt 0.1929 0.5222 0.0000
vt 0.2245 0.5508 0.0000
vt 0.1841 0.5177 0.0000
vt 0.1635 0.5177 0.0000
vt 0.1635 0.0415 0.0000
vt 0.1841 0.0415 0.0000
vt 0.1350 0.0411 0.0000
vt 0.1830 0.0411 0.0000
vt 0.1830 0.5164 0.0000
vt 0.1350 0.5164 0.0000
vt 0.1833 0.5188 0.0000
vt 0.1365 0.5188 0.0000
vt 0.1365 0.0420 0.0000
vt 0.1833 0.0420 0.0000
vt 0.1369 0.5160 0.0000
vt 0.1369 0.0420 0.0000
vt 0.1840 0.0420 0.0000
vt 0.1840 0.5160 0.0000
vt 0.1430 0.5177 0.0000
vt 0.1430 0.0415 0.0000
vt 0.1291 0.5200 0.0000
vt 0.1974 0.5200 0.0000
vt 0.2315 0.5505 0.0000
vt 0.1633 0.5505 0.0000
vt 0.0950 0.5505 0.0000
# 28 texture coords

o VentanaIzqCentro
g VentanaIzqCentro
usemtl 09___Default
s 1
f 1/1/1 2/2/2 3/3/3 
f 1/1/1 3/3/3 4/4/4 
f 1/1/1 4/4/4 5/5/5 
s 2
f 6/6/6 7/7/7 1/8/1 
f 1/8/1 5/9/5 6/6/6 
s 8
f 5/10/5 4/11/4 8/12/8 
f 8/12/8 6/13/6 5/10/5 
f 9/14/9 8/15/8 4/16/4 
f 4/16/4 3/17/3 9/14/9 
f 9/18/9 3/19/3 2/20/2 
f 2/20/2 10/21/10 9/18/9 
s 4
f 10/22/10 2/23/2 1/8/1 
f 1/8/1 7/7/7 10/22/10 
s 1
f 8/24/8 9/25/9 10/26/10 
f 10/26/10 7/27/7 6/28/6 
f 8/24/8 10/26/10 6/28/6 
# 16 faces

#
# object VentanaDerCentro
#

v  11.3588 0.0147 9.0008
v  13.3958 0.0147 9.0008
v  12.3773 0.0147 10.7649
v  10.3403 0.0147 10.7649
v  9.3218 0.0147 9.0008
v  9.3218 17.8384 9.0008
v  11.3588 17.8384 9.0008
v  10.3403 17.8384 10.7649
v  12.3773 17.8384 10.7649
v  13.3958 17.8384 9.0008
# 10 vertices

vn 0.0000 -0.7071 -0.7071
vn 0.7206 -0.5547 -0.4160
vn 0.3962 -0.6100 0.6862
vn -0.3962 -0.6100 0.6862
vn -0.7206 -0.5547 -0.4160
vn -0.7206 0.5547 -0.4160
vn 0.0000 0.7071 -0.7071
vn -0.3962 0.6100 0.6862
vn 0.3962 0.6100 0.6862
vn 0.7206 0.5547 -0.4160
# 10 vertex normals

vt 0.1613 0.5508 0.0000
vt 0.0981 0.5508 0.0000
vt 0.1297 0.5222 0.0000
vt 0.1929 0.5222 0.0000
vt 0.2245 0.5508 0.0000
vt 0.1841 0.5177 0.0000
vt 0.1635 0.5177 0.0000
vt 0.1635 0.0415 0.0000
vt 0.1841 0.0415 0.0000
vt 0.1350 0.0411 0.0000
vt 0.1830 0.0411 0.0000
vt 0.1830 0.5164 0.0000
vt 0.1350 0.5164 0.0000
vt 0.1833 0.5188 0.0000
vt 0.1365 0.5188 0.0000
vt 0.1365 0.0420 0.0000
vt 0.1833 0.0420 0.0000
vt 0.1369 0.5160 0.0000
vt 0.1369 0.0420 0.0000
vt 0.1840 0.0420 0.0000
vt 0.1840 0.5160 0.0000
vt 0.1430 0.5177 0.0000
vt 0.1430 0.0415 0.0000
vt 0.1291 0.5200 0.0000
vt 0.1974 0.5200 0.0000
vt 0.2315 0.5505 0.0000
vt 0.1633 0.5505 0.0000
vt 0.0950 0.5505 0.0000
# 28 texture coords

o VentanaDerCentro
g VentanaDerCentro
usemtl 09___Default
s 1
f 11/29/11 12/30/12 13/31/13 
f 11/29/11 13/31/13 14/32/14 
f 11/29/11 14/32/14 15/33/15 
s 2
f 16/34/16 17/35/17 11/36/11 
f 11/36/11 15/37/15 16/34/16 
s 8
f 15/38/15 14/39/14 18/40/18 
f 18/40/18 16/41/16 15/38/15 
f 19/42/19 18/43/18 14/44/14 
f 14/44/14 13/45/13 19/42/19 
f 19/46/19 13/47/13 12/48/12 
f 12/48/12 20/49/20 19/46/19 
s 4
f 20/50/20 12/51/12 11/36/11 
f 11/36/11 17/35/17 20/50/20 
s 1
f 18/52/18 19/53/19 20/54/20 
f 20/54/20 17/55/17 16/56/16 
f 18/52/18 20/54/20 16/56/16 
# 16 faces

#
# object CentroComercial
#

v  15.4516 0.0019 -9.3897
v  15.4516 0.0019 6.9311
v  13.5986 0.0019 8.9557
v  13.5986 0.0019 -11.4143
v  -13.0643 0.0019 8.9557
v  -13.0643 0.0019 -11.4143
v  -15.1033 0.0019 6.9311
v  -15.1033 0.0019 -9.3897
v  15.4516 17.8256 6.9311
v  15.4516 17.8256 -9.3897
v  13.5986 17.8256 -11.4143
v  13.5986 17.8256 8.9557
v  -13.0643 17.8256 -11.4143
v  -13.0643 17.8256 8.9557
v  -15.1033 17.8256 -9.3897
v  -15.1033 17.8256 6.9311
# 16 vertices

vn 0.7209 -0.6340 -0.2801
vn 0.7209 -0.6340 0.2801
vn 0.3141 -0.6266 0.7132
vn 0.3141 -0.6266 -0.7132
vn -0.2957 -0.6306 0.7176
vn -0.2957 -0.6306 -0.7176
vn -0.7170 -0.6300 0.2985
vn -0.7170 -0.6300 -0.2985
vn 0.7209 0.6340 0.2801
vn 0.7209 0.6340 -0.2801
vn 0.3141 0.6266 -0.7132
vn 0.3141 0.6266 0.7132
vn -0.2957 0.6306 -0.7176
vn -0.2957 0.6306 0.7176
vn -0.7170 0.6300 -0.2985
vn -0.7170 0.6300 0.2985
# 16 vertex normals

vt 0.7947 0.6593 0.0000
vt 0.9266 0.6593 0.0000
vt 0.9429 0.6748 0.0000
vt 0.7783 0.6748 0.0000
vt 0.9429 0.8976 0.0000
vt 0.7783 0.8976 0.0000
vt 0.9266 0.9146 0.0000
vt 0.7947 0.9146 0.0000
vt 0.0364 0.9282 0.0000
vt 0.0364 0.6351 0.0000
vt 0.0621 0.5987 0.0000
vt 0.0621 0.9646 0.0000
vt 0.0621 0.5963 0.0000
vt 0.2372 0.5963 0.0000
vt 0.2372 0.9646 0.0000
vt 0.9423 0.9646 0.0000
vt 0.9423 0.6035 0.0000
vt 0.9708 0.6394 0.0000
vt 0.9708 0.9287 0.0000
vt 0.6509 0.1989 0.0000
vt 0.7757 0.1989 0.0000
vt 0.7757 0.2791 0.0000
vt 0.6509 0.2791 0.0000
vt 0.2387 0.2762 0.0000
vt 0.2307 0.2762 0.0000
vt 0.2307 0.1983 0.0000
vt 0.2387 0.1983 0.0000
vt 0.3526 0.2762 0.0000
vt 0.3526 0.1983 0.0000
vt 0.3613 0.1983 0.0000
vt 0.3613 0.2762 0.0000
vt 0.3604 0.1946 0.0000
vt 0.3604 0.2835 0.0000
vt 0.2261 0.2835 0.0000
vt 0.2261 0.1946 0.0000
vt 0.0407 0.1129 0.0000
vt 0.0798 0.1129 0.0000
vt 0.0798 0.5552 0.0000
vt 0.0407 0.5552 0.0000
vt 0.0796 0.0663 0.0000
vt 0.9221 0.0663 0.0000
vt 0.9221 0.5943 0.0000
vt 0.0796 0.5943 0.0000
vt 0.9277 0.5604 0.0000
vt 0.9277 0.1217 0.0000
vt 0.9566 0.1217 0.0000
vt 0.9566 0.5604 0.0000
# 47 texture coords

o CentroComercial
g CentroComercial
usemtl 09___Default
s 2
f 21/57/21 22/58/22 23/59/23 
f 23/59/23 24/60/24 21/57/21 
f 24/60/24 23/59/23 25/61/25 
f 25/61/25 26/62/26 24/60/24 
f 25/61/25 27/63/27 28/64/28 
f 28/64/28 26/62/26 25/61/25 
s 4
f 29/65/29 30/66/30 31/67/31 
f 31/67/31 32/68/32 29/65/29 
f 32/68/32 31/69/31 33/70/33 
f 33/70/33 34/71/34 32/68/32 
f 34/72/34 33/73/33 35/74/35 
f 35/74/35 36/75/36 34/72/34 
s 8
f 21/76/21 30/77/30 29/78/29 
f 29/78/29 22/79/22 21/76/21 
s 16
f 31/80/31 30/81/30 21/82/21 
f 21/82/21 24/83/24 31/80/31 
f 33/84/33 31/80/31 24/83/24 
f 24/83/24 26/85/26 33/84/33 
f 26/85/26 28/86/28 35/87/35 
f 35/87/35 33/84/33 26/85/26 
s 32
f 28/88/28 27/89/27 36/90/36 
f 36/90/36 35/91/35 28/88/28 
s 64
f 27/92/27 25/93/25 34/94/34 
f 34/94/34 36/95/36 27/92/27 
f 25/96/25 23/97/23 32/98/32 
f 32/98/32 34/99/34 25/96/25 
f 32/100/32 23/101/23 22/102/22 
f 22/102/22 29/103/29 32/100/32 
# 28 faces

#
# object VentanaCenCentro001
#

v  0.3115 0.0147 9.0008
v  4.9635 0.0147 9.0008
v  4.1775 0.0147 10.7677
v  -3.5545 0.0147 10.7677
v  -4.3405 0.0147 9.0008
v  -4.3405 17.8384 9.0008
v  0.3115 17.8384 9.0008
v  -3.5545 17.8384 10.7677
v  4.1775 17.8384 10.7677
v  4.9635 17.8384 9.0008
# 10 vertices

vn 0.0000 -0.7071 -0.7071
vn 0.6956 -0.5585 -0.4519
vn 0.4348 -0.6026 0.6692
vn -0.4348 -0.6026 0.6692
vn -0.6956 -0.5585 -0.4519
vn -0.6956 0.5585 -0.4519
vn 0.0000 0.7071 -0.7071
vn -0.4348 0.6026 0.6692
vn 0.4348 0.6026 0.6692
vn 0.6956 0.5585 -0.4519
# 10 vertex normals

vt 0.5053 0.5513 0.0000
vt 0.3735 0.5513 0.0000
vt 0.3958 0.5130 0.0000
vt 0.6148 0.5130 0.0000
vt 0.6371 0.5513 0.0000
vt 0.6012 0.5081 0.0000
vt 0.5055 0.5081 0.0000
vt 0.5055 0.0425 0.0000
vt 0.6012 0.0425 0.0000
vt 0.5132 0.0449 0.0000
vt 0.6078 0.0449 0.0000
vt 0.6078 0.5073 0.0000
vt 0.5132 0.5073 0.0000
vt 0.6040 0.5096 0.0000
vt 0.4085 0.5096 0.0000
vt 0.4085 0.0408 0.0000
vt 0.6040 0.0408 0.0000
vt 0.4080 0.5073 0.0000
vt 0.4080 0.0435 0.0000
vt 0.5107 0.0435 0.0000
vt 0.5107 0.5073 0.0000
vt 0.4099 0.5081 0.0000
vt 0.4099 0.0425 0.0000
vt 0.3910 0.5120 0.0000
vt 0.6137 0.5120 0.0000
vt 0.6364 0.5492 0.0000
vt 0.5024 0.5492 0.0000
vt 0.3683 0.5492 0.0000
# 28 texture coords

o VentanaCenCentro001
g VentanaCenCentro001
usemtl 09___Default
s 1
f 37/104/37 38/105/38 39/106/39 
f 37/104/37 39/106/39 40/107/40 
f 37/104/37 40/107/40 41/108/41 
s 2
f 42/109/42 43/110/43 37/111/37 
f 37/111/37 41/112/41 42/109/42 
s 8
f 41/113/41 40/114/40 44/115/44 
f 44/115/44 42/116/42 41/113/41 
f 45/117/45 44/118/44 40/119/40 
f 40/119/40 39/120/39 45/117/45 
f 45/121/45 39/122/39 38/123/38 
f 38/123/38 46/124/46 45/121/45 
s 4
f 46/125/46 38/126/38 37/111/37 
f 37/111/37 43/110/43 46/125/46 
s 1
f 44/127/44 45/128/45 46/129/46 
f 46/129/46 43/130/43 42/131/42 
f 44/127/44 46/129/46 42/131/42 
# 16 faces

