# 3ds Max Wavefront OBJ Exporter v0.99 - (c)2007 guruware
# File Created: 14.06.2023 01:41:19

mtllib MordecaiBrazoIzq.mtl

#
# object mordecay_game_play_002
#

v  -0.0008 -0.0214 0.0009
v  0.0157 -0.0152 -0.0266
v  0.0157 -0.0304 0.0406
v  -0.5806 -0.3111 -0.0094
v  -0.5777 -0.3197 -0.0072
v  -0.5887 -0.3202 0.0088
v  -0.5864 -0.3284 0.0093
v  -0.5779 -0.3167 0.0333
v  -0.5752 -0.3235 0.0299
v  -0.5195 -0.2831 -0.0142
v  -0.5237 -0.2763 -0.0167
v  -0.4763 -0.2579 -0.0186
v  -0.4826 -0.2480 -0.0213
v  -0.4783 -0.2667 0.0081
v  -0.5195 -0.2909 0.0087
v  -0.5204 -0.2890 0.0402
v  -0.4771 -0.2652 0.0451
v  -0.5244 -0.2824 0.0417
v  -0.4828 -0.2550 0.0448
v  -0.4612 -0.2464 -0.0212
v  -0.4677 -0.2363 -0.0239
v  -0.4622 -0.2513 0.0081
v  -0.3376 -0.1780 -0.0021
v  -0.4632 -0.2502 0.0475
v  -0.4491 -0.2563 0.1075
v  -0.3318 -0.1899 0.0838
v  -0.2454 -0.1239 -0.0014
v  -0.2408 -0.1350 0.0678
v  -0.1569 -0.0788 -0.0006
v  -0.2408 -0.1162 -0.0720
v  -0.1536 -0.0715 -0.0616
v  -0.2399 -0.0929 -0.0781
v  -0.1490 -0.0503 -0.0679
v  -0.1536 -0.0892 0.0557
v  -0.3308 -0.1459 -0.0869
v  -0.3318 -0.1698 -0.0811
v  -0.4563 -0.2246 -0.0888
v  -0.4522 -0.2391 -0.0833
v  -0.0646 -0.0377 0.0002
v  -0.0627 -0.0309 -0.0485
v  -0.0627 -0.0473 0.0501
v  -0.0581 -0.0268 0.0569
v  0.0145 0.0045 0.0477
v  -0.1490 -0.0680 0.0623
v  -0.2399 -0.1117 0.0740
v  -0.4563 -0.2040 -0.0791
v  -0.0581 -0.0104 -0.0551
v  0.0145 0.0197 -0.0335
v  -0.0574 -0.0016 -0.0465
v  0.0152 0.0278 -0.0252
v  0.0146 0.0275 0.0009
v  -0.0585 -0.0084 0.0002
v  -0.1482 -0.0367 -0.0590
v  -0.1506 -0.0439 -0.0006
v  -0.2390 -0.0764 -0.0689
v  -0.2427 -0.0841 -0.0014
v  -0.2390 -0.0952 0.0647
v  -0.1482 -0.0543 0.0532
v  -0.3299 -0.1225 -0.0775
v  -0.3348 -0.1307 -0.0021
v  -0.3299 -0.1425 0.0801
v  -0.3308 -0.1659 0.0898
v  -0.4532 -0.2217 0.1033
v  -0.4501 -0.2425 0.1132
v  -0.4655 -0.2189 0.0484
v  -0.0574 -0.0180 0.0482
v  0.0152 0.0126 0.0392
v  -0.4638 -0.2105 -0.0233
v  -0.4650 -0.2294 0.1046
v  -0.4604 -0.2486 0.1133
v  -0.4922 -0.2511 0.1059
v  -0.4891 -0.2703 0.1135
v  -0.5021 -0.2465 0.0593
v  -0.4771 -0.2266 0.0522
v  -0.4764 -0.2503 0.0486
v  -0.5039 -0.2683 0.0564
v  -0.5458 -0.2923 0.0973
v  -0.5459 -0.3044 0.1007
v  -0.5506 -0.3023 0.0735
v  -0.5503 -0.2902 0.0765
v  -0.4684 -0.2434 0.0471
v  -0.4800 -0.2307 0.0459
v  -0.5230 -0.2619 0.0407
v  -0.5239 -0.2540 0.0120
v  -0.4831 -0.2224 0.0119
v  -0.5217 -0.2554 -0.0156
v  -0.4788 -0.2225 -0.0206
v  -0.5797 -0.3002 -0.0078
v  -0.5903 -0.2995 0.0120
v  -0.5774 -0.3044 0.0300
v  -0.4664 -0.2102 0.0119
v  -0.4730 -0.2173 -0.0302
v  -0.4768 -0.2429 -0.0255
v  -0.4982 -0.2338 -0.0391
v  -0.5005 -0.2562 -0.0342
v  -0.4927 -0.2289 -0.0805
v  -0.4669 -0.2111 -0.0790
v  -0.4668 -0.2316 -0.0885
v  -0.4916 -0.2464 -0.0853
v  -0.4628 -0.2459 -0.0831
v  -0.4890 -0.2583 -0.0836
v  -0.4711 -0.2492 -0.0271
v  -0.4958 -0.2637 -0.0375
v  -0.5425 -0.2608 -0.0759
v  -0.5424 -0.2739 -0.0792
v  -0.5456 -0.2765 -0.0561
v  -0.5451 -0.2630 -0.0566
v  -0.5403 -0.2775 -0.0773
v  -0.5434 -0.2800 -0.0558
v  -0.5438 -0.3080 0.0987
v  -0.5486 -0.3059 0.0762
v  -0.4885 -0.2811 0.1091
v  -0.4573 -0.2629 0.1077
v  -0.4696 -0.2604 0.0503
v  -0.4993 -0.2764 0.0586
# 115 vertices

vn -0.2050 -0.8930 0.4006
vn -0.7781 -0.5992 0.1882
vn -0.8044 -0.5939 -0.0146
vn -0.5401 -0.1142 -0.8338
vn -0.1016 -0.7213 -0.6851
vn -0.9815 -0.1846 -0.0510
vn -0.4727 -0.8769 -0.0877
vn -0.5356 -0.1774 0.8257
vn -0.0258 -0.8577 0.5135
vn 0.3125 -0.6408 -0.7013
vn -0.0533 -0.1182 -0.9916
vn 0.3726 -0.6379 -0.6740
vn -0.0660 -0.0992 -0.9929
vn 0.5823 -0.8065 -0.1023
vn 0.5053 -0.8557 -0.1113
vn 0.3170 -0.6790 0.6622
vn 0.3991 -0.6105 0.6841
vn -0.1086 -0.0734 0.9914
vn -0.0840 -0.0341 0.9959
vn 0.3581 -0.9158 -0.1822
vn -0.9980 -0.0117 -0.0617
vn 0.5969 -0.8002 -0.0579
vn 0.4846 -0.8636 -0.1394
vn 0.5431 -0.8312 -0.1194
vn 0.5120 -0.7125 0.4798
vn 0.5142 -0.7114 0.4790
vn 0.4780 -0.8709 -0.1141
vn 0.4921 -0.7243 0.4830
vn 0.4283 -0.8938 -0.1326
vn 0.4307 -0.6673 -0.6076
vn 0.4038 -0.7031 -0.5854
vn 0.0444 0.1309 -0.9904
vn 0.0734 0.1250 -0.9894
vn 0.4321 -0.7790 0.4544
vn 0.0059 0.0766 -0.9970
vn 0.4164 -0.6671 -0.6177
vn -0.0499 0.0620 -0.9968
vn 0.4137 -0.7028 -0.5787
vn 0.4974 -0.8659 -0.0531
vn 0.3292 -0.9320 -0.1516
vn 0.3589 -0.7126 -0.6028
vn -0.2498 -0.9526 -0.1735
vn -0.4657 -0.2990 -0.8329
vn 0.3325 -0.8076 0.4871
vn -0.0998 -0.6454 0.7573
vn -0.0203 0.2244 0.9743
vn -0.0620 0.2779 0.9586
vn 0.0355 0.1287 0.9910
vn 0.0878 0.1333 0.9872
vn -0.4697 0.7306 -0.4956
vn 0.1023 0.2224 -0.9696
vn -0.1657 0.3717 -0.9134
vn -0.2792 0.8951 -0.3476
vn -0.4309 0.8461 -0.3138
vn -0.6031 0.7734 0.1954
vn -0.3991 0.9039 0.1539
vn -0.3027 0.8553 -0.4204
vn -0.3773 0.9151 0.1420
vn -0.3395 0.8213 -0.4584
vn -0.4232 0.8976 0.1232
vn -0.2980 0.7700 0.5641
vn -0.2996 0.7931 0.5303
vn -0.4009 0.7573 -0.5155
vn -0.4890 0.8662 0.1028
vn -0.3225 0.7236 0.6103
vn 0.1295 0.0795 0.9884
vn -0.3553 0.7085 0.6097
vn 0.0897 0.0279 0.9956
vn -0.5835 0.7951 0.1655
vn -0.3108 0.8284 0.4661
vn -0.4099 0.7822 0.4693
vn -0.6382 0.7696 -0.0187
vn -0.4272 0.6703 0.6068
vn 0.0004 0.0270 0.9996
vn -0.4932 0.5955 0.6341
vn -0.0737 -0.0397 0.9965
vn -0.6468 0.6026 -0.4675
vn -0.6033 0.6294 -0.4899
vn -0.2210 -0.0430 -0.9743
vn -0.2783 -0.0765 -0.9574
vn -0.7510 0.3964 0.5282
vn -0.6484 -0.2742 0.7103
vn -0.7455 -0.3272 -0.5806
vn -0.8737 0.4044 -0.2704
vn -0.9936 -0.0212 0.1114
vn -0.4579 0.4477 0.7681
vn -0.0839 -0.0341 0.9959
vn -0.4506 0.4960 0.7422
vn -0.5989 0.7982 0.0654
vn -0.6056 0.7925 0.0724
vn -0.4939 0.5398 -0.6817
vn -0.5207 0.5359 -0.6646
vn -0.5958 0.4200 -0.6846
vn -0.9171 0.3858 0.1001
vn -0.5402 -0.1142 -0.8338
vn -0.9815 -0.1847 -0.0510
vn -0.6269 0.3054 0.7167
vn -0.5520 0.8301 0.0787
vn -0.6610 0.5793 0.4769
vn -0.2519 -0.0625 0.9657
vn -0.5834 0.6222 0.5219
vn -0.3119 -0.1354 0.9404
vn -0.4828 0.6688 -0.5653
vn -0.4904 0.7229 -0.4867
vn -0.0631 0.0254 -0.9977
vn -0.1115 0.0335 -0.9932
vn 0.3844 -0.7325 -0.5618
vn 0.2747 -0.6879 -0.6718
vn 0.1189 -0.7872 0.6052
vn 0.1999 -0.8405 0.5036
vn -0.2520 -0.0625 0.9657
vn -0.7276 0.4789 -0.4912
vn -0.6364 -0.2445 -0.7316
vn -0.8745 -0.2363 0.4235
vn -0.8323 0.3890 0.3950
vn -0.2114 -0.8583 -0.4676
vn -0.3789 -0.8416 0.3850
vn -0.6484 -0.2741 0.7102
vn -0.1611 -0.9236 0.3477
vn -0.3420 -0.8902 -0.3010
vn 0.3560 -0.7836 0.5092
vn -0.0738 -0.0397 0.9965
vn 0.5314 -0.7150 0.4543
vn 0.3888 -0.6262 -0.6758
vn 0.1990 -0.7127 -0.6726
vn -0.9935 -0.0212 0.1114
vn 0.0000 1.0000 -0.0000
vn 0.4280 -0.9028 -0.0428
vn 0.0003 -0.9753 -0.2207
vn -0.5839 0.7994 0.1414
vn -0.5494 0.8234 0.1423
vn -0.5118 0.8550 0.0833
vn -0.5412 0.8257 0.1593
vn -0.5354 0.8280 0.1667
vn -0.5535 0.8290 0.0800
vn -0.9950 -0.0154 -0.0990
vn -0.9999 -0.0123 -0.0028
vn -0.9996 -0.0291 0.0043
vn -0.9994 -0.0335 0.0111
vn -0.9937 0.1104 -0.0215
# 140 vertex normals

vt 0.2124 0.8978 0.0000
vt 0.2052 0.8786 0.0000
vt 0.2353 0.8865 0.0000
vt 0.3992 0.4165 0.0000
vt 0.3936 0.4184 0.0000
vt 0.3829 0.4087 0.0000
vt 0.3824 0.4125 0.0000
vt 0.3654 0.4200 0.0000
vt 0.3701 0.4213 0.0000
vt 0.4036 0.4641 0.0000
vt 0.4092 0.4630 0.0000
vt 0.4099 0.4973 0.0000
vt 0.4177 0.4963 0.0000
vt 0.3912 0.4955 0.0000
vt 0.3871 0.4633 0.0000
vt 0.3656 0.4656 0.0000
vt 0.3669 0.4995 0.0000
vt 0.3602 0.4657 0.0000
vt 0.3596 0.5012 0.0000
vt 0.4142 0.5100 0.0000
vt 0.4149 0.5088 0.0000
vt 0.3933 0.5106 0.0000
vt 0.4096 0.6088 0.0000
vt 0.3660 0.5136 0.0000
vt 0.3246 0.5258 0.0000
vt 0.3680 0.5976 0.0000
vt 0.4188 0.6815 0.0000
vt 0.3721 0.6768 0.0000
vt 0.4294 0.7489 0.0000
vt 0.4670 0.6797 0.0000
vt 0.4713 0.7463 0.0000
vt 0.4813 0.6866 0.0000
vt 0.4850 0.7542 0.0000
vt 0.3905 0.7538 0.0000
vt 0.4759 0.6159 0.0000
vt 0.4625 0.6084 0.0000
vt 0.4683 0.5163 0.0000
vt 0.4572 0.5146 0.0000
vt 0.4092 0.6081 0.0000
vt 0.4412 0.8171 0.0000
vt 0.4750 0.8148 0.0000
vt 0.4479 0.8617 0.0000
vt 0.4692 0.8712 0.0000
vt 0.4065 0.8215 0.0000
vt 0.4211 0.8752 0.0000
vt 0.3950 0.8313 0.0000
vt 0.3990 0.8850 0.0000
vt 0.3803 0.7652 0.0000
vt 0.3610 0.6915 0.0000
vt 0.4831 0.5227 0.0000
vt 0.4887 0.8215 0.0000
vt 0.4944 0.8764 0.0000
vt 0.4966 0.8246 0.0000
vt 0.5035 0.8793 0.0000
vt 0.5226 0.8804 0.0000
vt 0.5289 0.8250 0.0000
vt 0.4952 0.7585 0.0000
vt 0.5349 0.7577 0.0000
vt 0.4923 0.6918 0.0000
vt 0.5382 0.6891 0.0000
vt 0.5837 0.6902 0.0000
vt 0.5722 0.7588 0.0000
vt 0.5829 0.7555 0.0000
vt 0.5959 0.6860 0.0000
vt 0.4895 0.6237 0.0000
vt 0.5397 0.6180 0.0000
vt 0.5962 0.6198 0.0000
vt 0.6091 0.6147 0.0000
vt 0.6152 0.5204 0.0000
vt 0.6309 0.5171 0.0000
vt 0.5758 0.5098 0.0000
vt 0.5708 0.8236 0.0000
vt 0.5625 0.8257 0.0000
vt 0.5512 0.8789 0.0000
vt 0.5591 0.8770 0.0000
vt 0.5224 0.5128 0.0000
vt 0.6179 0.5119 0.0000
vt 0.6325 0.5097 0.0000
vt 0.6247 0.4898 0.0000
vt 0.6382 0.4853 0.0000
vt 0.5935 0.4810 0.0000
vt 0.5834 0.5016 0.0000
vt 0.5790 0.4867 0.0000
vt 0.5886 0.4669 0.0000
vt 0.6267 0.4438 0.0000
vt 0.6325 0.4380 0.0000
vt 0.6123 0.4323 0.0000
vt 0.6135 0.4401 0.0000
vt 0.5789 0.4927 0.0000
vt 0.5708 0.4965 0.0000
vt 0.5787 0.4833 0.0000
vt 0.5793 0.4499 0.0000
vt 0.5693 0.4598 0.0000
vt 0.5491 0.4625 0.0000
vt 0.5485 0.4982 0.0000
vt 0.5303 0.4628 0.0000
vt 0.5276 0.4997 0.0000
vt 0.5198 0.4850 0.0000
vt 0.5208 0.4519 0.0000
vt 0.5361 0.4129 0.0000
vt 0.5492 0.4092 0.0000
vt 0.5328 0.4062 0.0000
vt 0.5483 0.3966 0.0000
vt 0.5625 0.4125 0.0000
vt 0.5676 0.4055 0.0000
vt 0.5484 0.5126 0.0000
vt 0.5188 0.4948 0.0000
vt 0.5139 0.5052 0.0000
vt 0.5177 0.4882 0.0000
vt 0.5025 0.4849 0.0000
vt 0.5090 0.4708 0.0000
vt 0.4764 0.4957 0.0000
vt 0.4816 0.5151 0.0000
vt 0.4672 0.5090 0.0000
vt 0.4653 0.4909 0.0000
vt 0.4566 0.5069 0.0000
vt 0.4573 0.4889 0.0000
vt 0.4182 0.5020 0.0000
vt 0.4262 0.4815 0.0000
vt 0.4129 0.4998 0.0000
vt 0.4203 0.4789 0.0000
vt 0.4689 0.4568 0.0000
vt 0.4617 0.4513 0.0000
vt 0.4800 0.4436 0.0000
vt 0.4799 0.4519 0.0000
vt 0.4585 0.4528 0.0000
vt 0.4441 0.4471 0.0000
vt 0.4444 0.4491 0.0000
vt 0.3179 0.4518 0.0000
vt 0.3371 0.4466 0.0000
vt 0.3202 0.4531 0.0000
vt 0.3348 0.4485 0.0000
vt 0.3187 0.4950 0.0000
vt 0.3116 0.4990 0.0000
vt 0.3233 0.5188 0.0000
vt 0.3142 0.5242 0.0000
vt 0.3608 0.5068 0.0000
vt 0.3529 0.4848 0.0000
vt 0.3593 0.4830 0.0000
vt 0.3683 0.5052 0.0000
vt 0.3163 0.5322 0.0000
vt 0.3518 0.6197 0.0000
vt 0.3663 0.5138 0.0000
vt 0.0000 0.0000 0.0000
# 144 texture coords

o mordecay_game_play_002
g mordecay_game_play_002
usemtl mordecai_001
s 1
f 1/1/1 2/2/2 3/3/3 
f 4/4/4 5/5/5 6/6/6 
f 7/7/7 6/6/6 5/5/5 
f 6/6/6 7/7/7 8/8/8 
f 9/9/9 8/8/8 7/7/7 
f 5/5/5 4/4/4 10/10/10 
f 11/11/11 10/10/10 4/4/4 
f 10/10/10 11/11/11 12/12/12 
f 13/13/13 12/12/12 11/11/11 
f 12/12/12 14/14/14 10/10/10 
f 15/15/15 10/10/10 14/14/14 
f 7/7/7 5/5/5 15/15/15 
f 10/10/10 15/15/15 5/5/5 
f 7/7/7 15/15/15 9/9/9 
f 15/15/15 14/14/14 16/16/16 
f 16/16/16 9/9/9 15/15/15 
f 9/9/9 16/16/16 8/8/8 
f 17/17/17 16/16/16 14/14/14 
f 16/16/16 17/17/17 18/18/18 
f 18/18/18 8/8/8 16/16/16 
f 19/19/19 18/18/18 17/17/17 
f 12/12/12 13/13/13 20/20/20 
f 21/21/21 20/20/20 13/13/13 
f 20/20/20 22/22/22 12/12/12 
f 14/14/14 12/12/12 22/22/22 
f 14/14/14 22/22/22 17/17/17 
f 22/22/22 20/20/20 23/23/23 
f 24/24/24 22/22/22 23/23/23 
f 24/24/24 17/17/17 22/22/22 
f 17/17/17 24/24/24 19/19/19 
f 24/24/24 23/23/23 25/25/25 
f 26/26/26 25/25/25 23/23/23 
f 23/23/23 27/27/27 26/26/26 
f 28/28/28 26/26/26 27/27/27 
f 27/27/27 29/29/29 28/28/28 
f 27/27/27 30/30/30 29/29/29 
f 31/31/31 29/29/29 30/30/30 
f 30/30/30 32/32/32 31/31/31 
f 33/33/33 31/31/31 32/32/32 
f 34/34/34 28/28/28 29/29/29 
f 32/32/32 30/30/30 35/35/35 
f 36/36/36 35/35/35 30/30/30 
f 36/36/36 30/30/30 27/27/27 
f 35/35/35 36/36/36 37/37/37 
f 38/38/38 37/37/37 36/36/36 
f 23/39/39 36/36/36 27/27/27 
f 29/29/29 31/31/31 39/40/40 
f 29/29/29 39/40/40 34/34/34 
f 40/41/41 39/40/40 31/31/31 
f 31/31/31 33/33/33 40/41/41 
f 39/40/40 40/41/41 1/42/42 
f 2/43/43 1/42/42 40/41/41 
f 39/40/40 1/42/42 41/44/44 
f 41/44/44 34/34/34 39/40/40 
f 3/45/45 41/44/44 1/42/42 
f 41/44/44 3/45/45 42/46/46 
f 43/47/47 42/46/46 3/45/45 
f 42/46/46 44/48/48 41/44/44 
f 34/34/34 41/44/44 44/48/48 
f 44/48/48 45/49/49 34/34/34 
f 28/28/28 34/34/34 45/49/49 
f 37/37/37 46/50/50 35/35/35 
f 40/41/41 47/51/51 2/43/43 
f 48/52/52 2/43/43 47/51/51 
f 47/51/51 49/53/53 48/52/52 
f 50/54/54 48/52/52 49/53/53 
f 50/54/54 49/53/53 51/55/55 
f 52/56/56 51/55/55 49/53/53 
f 49/53/53 53/57/57 52/56/56 
f 49/53/53 47/51/51 53/57/57 
f 54/58/58 52/56/56 53/57/57 
f 53/57/57 55/59/59 54/58/58 
f 56/60/60 54/58/58 55/59/59 
f 56/60/60 57/61/61 54/58/58 
f 58/62/62 54/58/58 57/61/61 
f 54/58/58 58/62/62 52/56/56 
f 58/62/62 57/61/61 44/63/48 
f 45/64/49 44/63/48 57/61/61 
f 55/59/59 59/65/63 56/60/60 
f 60/66/64 56/60/60 59/65/63 
f 33/33/33 53/57/57 47/51/51 
f 53/57/57 33/33/33 55/59/59 
f 57/61/61 61/67/65 45/64/49 
f 60/66/64 61/67/65 56/60/60 
f 57/61/61 56/60/60 61/67/65 
f 62/68/66 45/64/49 61/67/65 
f 61/67/65 63/69/67 62/68/66 
f 61/67/65 60/66/64 63/69/67 
f 64/70/68 62/68/66 63/69/67 
f 65/71/69 63/69/67 60/66/64 
f 32/32/32 55/59/59 33/33/33 
f 55/59/59 32/32/32 59/65/63 
f 35/35/35 59/65/63 32/32/32 
f 59/65/63 35/35/35 46/50/50 
f 59/65/63 46/50/50 60/66/64 
f 44/63/48 42/72/46 58/62/62 
f 66/73/70 58/62/62 42/72/46 
f 66/73/70 52/56/56 58/62/62 
f 52/56/56 66/73/70 51/55/55 
f 67/74/71 51/55/55 66/73/70 
f 67/74/71 66/73/70 43/75/47 
f 42/72/46 43/75/47 66/73/70 
f 68/76/72 60/66/64 46/50/50 
f 63/69/67 69/77/73 64/70/68 
f 70/78/74 64/70/68 69/77/73 
f 69/77/73 71/79/75 70/78/74 
f 72/80/76 70/78/74 71/79/75 
f 71/79/75 69/77/73 73/81/77 
f 74/82/78 73/81/77 69/77/73 
f 74/82/78 75/83/79 73/81/77 
f 76/84/80 73/81/77 75/83/79 
f 71/79/75 77/85/81 72/80/76 
f 78/86/82 72/80/76 77/85/81 
f 78/86/82 77/85/81 79/87/83 
f 80/88/84 79/87/83 77/85/81 
f 77/85/81 71/79/75 80/88/84 
f 73/81/77 80/88/84 71/79/75 
f 79/87/83 80/88/84 76/84/80 
f 73/81/77 76/84/80 80/88/84 
f 69/77/73 63/69/67 74/82/78 
f 65/71/69 74/82/78 63/69/67 
f 65/71/69 81/89/85 74/82/78 
f 75/83/79 74/82/78 81/89/85 
f 65/71/69 82/90/86 81/89/85 
f 19/91/87 81/89/85 82/90/86 
f 19/91/87 82/90/86 18/92/18 
f 83/93/88 18/92/18 82/90/86 
f 83/93/88 82/90/86 84/94/89 
f 85/95/90 84/94/89 82/90/86 
f 82/90/86 65/71/69 85/95/90 
f 84/94/89 85/95/90 86/96/91 
f 87/97/92 86/96/91 85/95/90 
f 87/97/92 13/98/13 86/96/91 
f 11/99/11 86/96/91 13/98/13 
f 86/96/91 88/100/93 84/94/89 
f 86/96/91 11/99/11 88/100/93 
f 89/101/94 84/94/89 88/100/93 
f 84/94/89 89/101/94 83/93/88 
f 88/100/93 4/102/95 89/101/94 
f 4/102/95 88/100/93 11/99/11 
f 6/103/96 89/101/94 4/102/95 
f 89/101/94 6/103/96 90/104/97 
f 83/93/88 90/104/97 18/92/18 
f 90/104/97 83/93/88 89/101/94 
f 8/105/8 90/104/97 6/103/96 
f 8/105/8 18/92/18 90/104/97 
f 85/95/90 91/106/98 87/97/92 
f 68/76/72 87/97/92 91/106/98 
f 68/76/72 91/106/98 60/66/64 
f 65/71/69 60/66/64 91/106/98 
f 91/106/98 85/95/90 65/71/69 
f 68/76/72 21/107/21 87/97/92 
f 13/98/13 87/97/92 21/107/21 
f 68/76/72 92/108/99 21/107/21 
f 93/109/100 21/107/21 92/108/99 
f 92/108/99 94/110/101 93/109/100 
f 95/111/102 93/109/100 94/110/101 
f 94/110/101 92/108/99 96/112/103 
f 97/113/104 96/112/103 92/108/99 
f 92/108/99 68/76/72 97/113/104 
f 97/113/104 98/114/105 96/112/103 
f 99/115/106 96/112/103 98/114/105 
f 98/114/105 100/116/107 99/115/106 
f 101/117/108 99/115/106 100/116/107 
f 100/116/107 102/118/109 101/117/108 
f 103/119/110 101/117/108 102/118/109 
f 102/118/109 93/120/111 103/119/110 
f 95/121/102 103/119/110 93/120/111 
f 96/112/103 99/115/106 104/122/112 
f 96/112/103 104/122/112 94/110/101 
f 105/123/113 104/122/112 99/115/106 
f 99/115/106 101/117/108 105/123/113 
f 105/123/113 106/124/114 104/122/112 
f 107/125/115 104/122/112 106/124/114 
f 106/124/114 95/111/102 107/125/115 
f 94/110/101 107/125/115 95/111/102 
f 107/125/115 94/110/101 104/122/112 
f 108/126/116 105/123/113 101/117/108 
f 101/117/108 103/119/110 108/126/116 
f 105/123/113 108/126/116 106/127/114 
f 109/128/117 106/127/114 108/126/116 
f 109/128/117 108/126/116 103/119/110 
f 106/127/114 109/128/117 95/121/102 
f 103/119/110 95/121/102 109/128/117 
f 98/114/105 97/113/104 37/37/37 
f 46/50/50 37/37/37 97/113/104 
f 37/37/37 38/38/38 98/114/105 
f 100/116/107 98/114/105 38/38/38 
f 100/116/107 38/38/38 102/118/109 
f 20/20/20 102/118/109 38/38/38 
f 38/38/38 36/36/36 20/20/20 
f 23/39/39 20/20/20 36/36/36 
f 20/20/20 21/21/21 102/118/109 
f 93/120/111 102/118/109 21/21/21 
f 46/50/50 97/113/104 68/76/72 
f 78/129/118 79/130/83 110/131/119 
f 111/132/120 110/131/119 79/130/83 
f 110/131/119 112/133/121 78/129/118 
f 72/134/122 78/129/118 112/133/121 
f 112/133/121 113/135/123 72/134/122 
f 70/136/74 72/134/122 113/135/123 
f 113/135/123 112/133/121 114/137/124 
f 115/138/125 114/137/124 112/133/121 
f 111/132/120 79/130/83 115/138/125 
f 111/132/120 115/138/125 110/131/119 
f 112/133/121 110/131/119 115/138/125 
f 115/138/125 76/139/80 114/137/124 
f 76/139/80 115/138/125 79/130/83 
f 75/140/79 114/137/124 76/139/80 
f 113/135/123 25/25/25 70/136/74 
f 64/141/68 70/136/74 25/25/25 
f 25/25/25 26/26/26 64/141/68 
f 62/142/66 64/141/68 26/26/26 
f 26/26/26 28/28/28 62/142/66 
f 45/49/49 62/142/66 28/28/28 
f 114/137/124 75/140/79 24/24/24 
f 25/25/25 113/135/123 24/24/24 
f 114/137/124 24/24/24 113/135/123 
f 81/143/126 24/24/24 75/140/79 
f 81/143/126 19/19/19 24/24/24 
f 47/51/51 40/41/41 33/33/33 
s off
f 4/144/127 4/144/127 6/144/127 
f 11/144/127 11/144/127 4/144/127 
f 76/144/127 76/144/127 79/144/127 
f 105/144/128 95/144/128 106/144/128 
f 13/144/127 13/144/127 11/144/127 
f 75/144/127 75/144/127 76/144/127 
f 21/144/127 21/144/127 13/144/127 
f 2/144/129 3/144/129 1/144/129 
f 4/144/130 6/144/130 8/144/130 
f 4/144/131 8/144/131 18/144/131 
f 11/144/127 4/144/127 4/144/127 
f 11/144/132 4/144/132 18/144/132 
f 76/144/133 79/144/133 78/144/133 
f 76/144/134 78/144/134 72/144/134 
f 11/144/135 18/144/135 19/144/135 
f 106/144/127 105/144/127 106/144/127 
f 95/144/127 106/144/127 95/144/127 
f 78/144/127 79/144/127 78/144/127 
f 93/144/127 95/144/127 93/144/127 
f 72/144/127 78/144/127 72/144/127 
f 21/144/127 93/144/127 21/144/127 
f 70/144/127 72/144/127 70/144/127 
f 64/144/127 70/144/127 64/144/127 
f 62/144/127 64/144/127 62/144/127 
f 45/144/127 62/144/127 45/144/127 
f 44/144/127 45/144/127 44/144/127 
f 42/144/127 44/144/127 42/144/127 
f 43/144/127 42/144/127 43/144/127 
f 3/144/136 43/144/136 67/144/136 
f 3/144/137 67/144/137 2/144/137 
f 67/144/138 51/144/138 2/144/138 
f 2/144/139 51/144/139 48/144/139 
f 51/144/140 50/144/140 48/144/140 
# 254 faces

