# 3ds Max Wavefront OBJ Exporter v0.99 - (c)2007 guruware
# File Created: 14.06.2023 01:39:10

mtllib MordecaiBrazoDer.mtl

#
# object mordecay_game_play_001
#

v  0.0039 -0.0071 -0.0050
v  -0.0126 -0.0160 0.0347
v  -0.0126 -0.0008 -0.0326
v  0.5895 -0.3140 0.0033
v  0.5808 -0.3054 -0.0132
v  0.5918 -0.3058 0.0029
v  0.5837 -0.2967 -0.0154
v  0.5810 -0.3023 0.0273
v  0.5783 -0.3091 0.0239
v  0.5226 -0.2687 -0.0202
v  0.5268 -0.2619 -0.0226
v  0.4794 -0.2435 -0.0245
v  0.4857 -0.2336 -0.0272
v  0.4814 -0.2523 0.0022
v  0.5226 -0.2765 0.0027
v  0.5235 -0.2746 0.0342
v  0.4802 -0.2508 0.0391
v  0.5275 -0.2680 0.0357
v  0.4859 -0.2406 0.0388
v  0.4644 -0.2320 -0.0272
v  0.4708 -0.2219 -0.0299
v  0.4653 -0.2369 0.0021
v  0.3407 -0.1637 -0.0081
v  0.4663 -0.2359 0.0415
v  0.4523 -0.2419 0.1015
v  0.3349 -0.1755 0.0778
v  0.2485 -0.1096 -0.0073
v  0.2439 -0.1207 0.0618
v  0.1600 -0.0644 -0.0066
v  0.2439 -0.1018 -0.0780
v  0.1567 -0.0572 -0.0675
v  0.2430 -0.0785 -0.0840
v  0.1521 -0.0360 -0.0739
v  0.1567 -0.0748 0.0498
v  0.3339 -0.1315 -0.0929
v  0.3349 -0.1555 -0.0871
v  0.4594 -0.2102 -0.0947
v  0.4553 -0.2247 -0.0892
v  0.0677 -0.0233 -0.0058
v  0.0658 -0.0166 -0.0544
v  0.0658 -0.0330 0.0442
v  0.0613 -0.0124 0.0510
v  -0.0114 0.0188 0.0417
v  0.1521 -0.0536 0.0563
v  0.2430 -0.0973 0.0680
v  0.4594 -0.1896 -0.0850
v  0.3330 -0.1081 -0.0834
v  0.2421 -0.0620 -0.0749
v  0.2458 -0.0697 -0.0073
v  0.1537 -0.0296 -0.0066
v  0.1513 -0.0223 -0.0650
v  0.2421 -0.0808 0.0587
v  0.1513 -0.0399 0.0472
v  0.3379 -0.1163 -0.0081
v  0.0616 0.0060 -0.0058
v  0.0605 0.0128 -0.0524
v  -0.0115 0.0419 -0.0050
v  -0.0121 0.0422 -0.0312
v  -0.0114 0.0341 -0.0395
v  0.0613 0.0040 -0.0611
v  0.3330 -0.1281 0.0742
v  0.3339 -0.1515 0.0838
v  0.4563 -0.2074 0.0973
v  0.4532 -0.2281 0.1072
v  0.4686 -0.2045 0.0424
v  0.0605 -0.0036 0.0422
v  -0.0121 0.0270 0.0332
v  0.4681 -0.2150 0.0986
v  0.4635 -0.2342 0.1074
v  0.4953 -0.2368 0.0999
v  0.4922 -0.2559 0.1076
v  0.5052 -0.2321 0.0534
v  0.4802 -0.2122 0.0463
v  0.4795 -0.2359 0.0427
v  0.5070 -0.2540 0.0504
v  0.5489 -0.2779 0.0913
v  0.5490 -0.2901 0.0947
v  0.5538 -0.2879 0.0676
v  0.5534 -0.2759 0.0705
v  0.4715 -0.2290 0.0411
v  0.4831 -0.2163 0.0400
v  0.5261 -0.2475 0.0347
v  0.5270 -0.2397 0.0060
v  0.4862 -0.2081 0.0059
v  0.5248 -0.2410 -0.0215
v  0.4819 -0.2081 -0.0266
v  0.5828 -0.2858 -0.0138
v  0.5934 -0.2851 0.0061
v  0.5805 -0.2900 0.0241
v  0.4695 -0.1958 0.0059
v  0.4669 -0.1961 -0.0293
v  0.4761 -0.2030 -0.0362
v  0.4799 -0.2285 -0.0315
v  0.5013 -0.2194 -0.0450
v  0.5037 -0.2418 -0.0402
v  0.4958 -0.2145 -0.0864
v  0.4700 -0.1968 -0.0850
v  0.4699 -0.2172 -0.0945
v  0.4947 -0.2320 -0.0912
v  0.4659 -0.2315 -0.0891
v  0.4921 -0.2439 -0.0896
v  0.4742 -0.2348 -0.0331
v  0.4989 -0.2493 -0.0434
v  0.5456 -0.2464 -0.0818
v  0.5455 -0.2595 -0.0852
v  0.5488 -0.2621 -0.0620
v  0.5482 -0.2486 -0.0625
v  0.5434 -0.2631 -0.0833
v  0.5465 -0.2656 -0.0618
v  0.5517 -0.2915 0.0702
v  0.5469 -0.2936 0.0928
v  0.4916 -0.2668 0.1032
v  0.4604 -0.2485 0.1018
v  0.4727 -0.2461 0.0444
v  0.5024 -0.2621 0.0527
# 115 vertices

vn 0.2050 -0.8930 0.4006
vn 0.8044 -0.5939 -0.0146
vn 0.7781 -0.5992 0.1882
vn 0.4727 -0.8769 -0.0877
vn 0.1016 -0.7213 -0.6851
vn 0.9815 -0.1846 -0.0510
vn 0.5401 -0.1142 -0.8338
vn 0.5356 -0.1774 0.8257
vn 0.0258 -0.8577 0.5135
vn -0.3125 -0.6408 -0.7013
vn 0.0533 -0.1182 -0.9916
vn -0.3726 -0.6379 -0.6740
vn 0.0660 -0.0992 -0.9929
vn -0.5823 -0.8065 -0.1023
vn -0.5053 -0.8557 -0.1113
vn -0.3170 -0.6790 0.6622
vn -0.3991 -0.6105 0.6841
vn 0.1085 -0.0734 0.9914
vn 0.0840 -0.0341 0.9959
vn -0.3581 -0.9158 -0.1822
vn 0.9980 -0.0117 -0.0618
vn -0.5969 -0.8002 -0.0579
vn -0.4846 -0.8636 -0.1394
vn -0.5653 -0.8239 0.0400
vn -0.5120 -0.7125 0.4798
vn -0.5142 -0.7114 0.4790
vn -0.4780 -0.8709 -0.1141
vn -0.4921 -0.7243 0.4830
vn -0.4283 -0.8938 -0.1326
vn -0.4307 -0.6673 -0.6076
vn -0.4038 -0.7031 -0.5854
vn -0.0444 0.1309 -0.9904
vn -0.0734 0.1250 -0.9894
vn -0.4321 -0.7790 0.4544
vn -0.0059 0.0766 -0.9970
vn -0.4164 -0.6671 -0.6177
vn 0.0499 0.0620 -0.9968
vn -0.4137 -0.7028 -0.5787
vn -0.4974 -0.8659 -0.0531
vn -0.3292 -0.9320 -0.1516
vn -0.3589 -0.7126 -0.6028
vn 0.2498 -0.9526 -0.1735
vn 0.4657 -0.2990 -0.8329
vn -0.3325 -0.8076 0.4871
vn 0.0998 -0.6454 0.7573
vn 0.0203 0.2244 0.9743
vn 0.0620 0.2779 0.9586
vn -0.0355 0.1287 0.9910
vn -0.0878 0.1333 0.9872
vn 0.4697 0.7306 -0.4956
vn 0.4009 0.7573 -0.5155
vn 0.3395 0.8213 -0.4584
vn 0.4232 0.8976 0.1232
vn 0.3773 0.9151 0.1420
vn 0.3027 0.8553 -0.4204
vn 0.2980 0.7700 0.5641
vn 0.2996 0.7931 0.5303
vn 0.4890 0.8662 0.1028
vn 0.3991 0.9039 0.1539
vn 0.2792 0.8951 -0.3476
vn 0.6031 0.7734 0.1954
vn 0.4309 0.8461 -0.3138
vn 0.1657 0.3717 -0.9134
vn -0.1023 0.2224 -0.9696
vn 0.3225 0.7236 0.6103
vn -0.1295 0.0795 0.9884
vn 0.3553 0.7085 0.6097
vn -0.0897 0.0279 0.9956
vn 0.5835 0.7951 0.1655
vn 0.3108 0.8284 0.4661
vn 0.4099 0.7822 0.4693
vn 0.4272 0.6703 0.6067
vn -0.0004 0.0270 0.9996
vn 0.4932 0.5955 0.6341
vn 0.0737 -0.0397 0.9965
vn 0.6468 0.6026 -0.4675
vn 0.6033 0.6294 -0.4899
vn 0.2210 -0.0430 -0.9743
vn 0.2783 -0.0765 -0.9574
vn 0.7510 0.3964 0.5282
vn 0.6484 -0.2742 0.7103
vn 0.7455 -0.3272 -0.5806
vn 0.8737 0.4044 -0.2704
vn 0.9936 -0.0212 0.1114
vn 0.4579 0.4477 0.7681
vn 0.0839 -0.0341 0.9959
vn 0.1086 -0.0734 0.9914
vn 0.4506 0.4960 0.7422
vn 0.5989 0.7982 0.0654
vn 0.6056 0.7925 0.0724
vn 0.4939 0.5398 -0.6817
vn 0.5207 0.5359 -0.6646
vn 0.5958 0.4200 -0.6846
vn 0.9171 0.3858 0.1001
vn 0.5402 -0.1142 -0.8338
vn 0.9815 -0.1847 -0.0510
vn 0.6269 0.3054 0.7167
vn 0.5520 0.8301 0.0787
vn 0.6382 0.7696 -0.0187
vn 0.9980 -0.0117 -0.0617
vn 0.6610 0.5793 0.4769
vn 0.2519 -0.0625 0.9657
vn 0.5834 0.6222 0.5219
vn 0.3119 -0.1354 0.9404
vn 0.4828 0.6688 -0.5653
vn 0.4904 0.7229 -0.4867
vn 0.0631 0.0254 -0.9977
vn 0.1115 0.0335 -0.9932
vn -0.3844 -0.7325 -0.5618
vn -0.2747 -0.6879 -0.6718
vn -0.1189 -0.7872 0.6052
vn -0.1999 -0.8405 0.5036
vn 0.2520 -0.0625 0.9657
vn 0.7276 0.4789 -0.4912
vn 0.6364 -0.2445 -0.7316
vn 0.8745 -0.2363 0.4235
vn 0.8323 0.3890 0.3950
vn 0.2114 -0.8583 -0.4676
vn 0.3789 -0.8416 0.3850
vn 0.3420 -0.8902 -0.3009
vn 0.1611 -0.9236 0.3477
vn 0.6484 -0.2741 0.7102
vn -0.3560 -0.7836 0.5092
vn 0.0738 -0.0397 0.9965
vn -0.5314 -0.7150 0.4543
vn -0.3888 -0.6262 -0.6758
vn -0.1990 -0.7127 -0.6726
vn 0.2784 -0.0765 -0.9574
vn 0.1614 -0.0383 -0.9861
vn 0.4500 0.8930 -0.0123
vn 0.0000 1.0000 -0.0000
vn -0.5839 -0.7994 -0.1413
vn -0.5494 -0.8234 -0.1423
vn -0.5118 -0.8550 -0.0833
vn -0.5354 -0.8280 -0.1667
vn -0.5095 -0.8454 -0.1606
vn -0.5535 -0.8290 -0.0800
vn -0.5976 -0.7917 -0.1268
vn -0.5587 -0.8250 -0.0849
vn -0.6318 -0.7631 -0.1360
vn -0.5075 -0.8521 -0.1280
vn -0.9231 -0.0017 -0.3845
vn -0.5172 -0.8458 -0.1308
vn -0.9950 0.0154 0.0990
vn -0.9457 -0.2975 -0.1308
vn -0.8519 -0.2680 0.4500
vn -0.9994 0.0335 -0.0111
vn -0.9937 -0.1104 0.0215
vn -0.5412 -0.8257 -0.1593
# 149 vertex normals

vt 0.2124 0.8978 0.0000
vt 0.2353 0.8865 0.0000
vt 0.2052 0.8786 0.0000
vt 0.3824 0.4125 0.0000
vt 0.3936 0.4184 0.0000
vt 0.3829 0.4087 0.0000
vt 0.3992 0.4165 0.0000
vt 0.3654 0.4200 0.0000
vt 0.3701 0.4213 0.0000
vt 0.4036 0.4641 0.0000
vt 0.4092 0.4630 0.0000
vt 0.4099 0.4973 0.0000
vt 0.4177 0.4963 0.0000
vt 0.3912 0.4955 0.0000
vt 0.3871 0.4633 0.0000
vt 0.3656 0.4656 0.0000
vt 0.3669 0.4995 0.0000
vt 0.3602 0.4657 0.0000
vt 0.3596 0.5012 0.0000
vt 0.4142 0.5100 0.0000
vt 0.4149 0.5088 0.0000
vt 0.3933 0.5106 0.0000
vt 0.4096 0.6088 0.0000
vt 0.3660 0.5136 0.0000
vt 0.3246 0.5258 0.0000
vt 0.3503 0.6074 0.0000
vt 0.4188 0.6815 0.0000
vt 0.3725 0.6785 0.0000
vt 0.4294 0.7489 0.0000
vt 0.4670 0.6797 0.0000
vt 0.4713 0.7463 0.0000
vt 0.4813 0.6866 0.0000
vt 0.4850 0.7542 0.0000
vt 0.3905 0.7538 0.0000
vt 0.4759 0.6159 0.0000
vt 0.4625 0.6084 0.0000
vt 0.4683 0.5163 0.0000
vt 0.4572 0.5146 0.0000
vt 0.4092 0.6081 0.0000
vt 0.4412 0.8171 0.0000
vt 0.4750 0.8148 0.0000
vt 0.4479 0.8617 0.0000
vt 0.4692 0.8712 0.0000
vt 0.4065 0.8215 0.0000
vt 0.4211 0.8752 0.0000
vt 0.3950 0.8313 0.0000
vt 0.3990 0.8850 0.0000
vt 0.3803 0.7652 0.0000
vt 0.3661 0.6902 0.0000
vt 0.4831 0.5227 0.0000
vt 0.4895 0.6237 0.0000
vt 0.4923 0.6918 0.0000
vt 0.5382 0.6891 0.0000
vt 0.5349 0.7577 0.0000
vt 0.4952 0.7585 0.0000
vt 0.5837 0.6902 0.0000
vt 0.5722 0.7588 0.0000
vt 0.5829 0.7555 0.0000
vt 0.5959 0.6860 0.0000
vt 0.5397 0.6180 0.0000
vt 0.5289 0.8250 0.0000
vt 0.4966 0.8246 0.0000
vt 0.5226 0.8804 0.0000
vt 0.5035 0.8793 0.0000
vt 0.4944 0.8764 0.0000
vt 0.4887 0.8215 0.0000
vt 0.5962 0.6198 0.0000
vt 0.6120 0.6136 0.0000
vt 0.6152 0.5204 0.0000
vt 0.6309 0.5171 0.0000
vt 0.5758 0.5098 0.0000
vt 0.5625 0.8257 0.0000
vt 0.5512 0.8789 0.0000
vt 0.5591 0.8770 0.0000
vt 0.5708 0.8236 0.0000
vt 0.6179 0.5119 0.0000
vt 0.6325 0.5097 0.0000
vt 0.6247 0.4898 0.0000
vt 0.6382 0.4853 0.0000
vt 0.5935 0.4810 0.0000
vt 0.5834 0.5016 0.0000
vt 0.5790 0.4867 0.0000
vt 0.5886 0.4669 0.0000
vt 0.6267 0.4438 0.0000
vt 0.6325 0.4380 0.0000
vt 0.6123 0.4323 0.0000
vt 0.6135 0.4401 0.0000
vt 0.5789 0.4927 0.0000
vt 0.5708 0.4965 0.0000
vt 0.5787 0.4833 0.0000
vt 0.5793 0.4499 0.0000
vt 0.5693 0.4598 0.0000
vt 0.5491 0.4625 0.0000
vt 0.5485 0.4982 0.0000
vt 0.5303 0.4628 0.0000
vt 0.5276 0.4997 0.0000
vt 0.5198 0.4850 0.0000
vt 0.5208 0.4519 0.0000
vt 0.5361 0.4129 0.0000
vt 0.5492 0.4092 0.0000
vt 0.5328 0.4062 0.0000
vt 0.5483 0.3966 0.0000
vt 0.5625 0.4125 0.0000
vt 0.5676 0.4055 0.0000
vt 0.5484 0.5126 0.0000
vt 0.5224 0.5128 0.0000
vt 0.5188 0.4948 0.0000
vt 0.5139 0.5052 0.0000
vt 0.5177 0.4882 0.0000
vt 0.5025 0.4849 0.0000
vt 0.5090 0.4708 0.0000
vt 0.4764 0.4957 0.0000
vt 0.4816 0.5151 0.0000
vt 0.4672 0.5090 0.0000
vt 0.4653 0.4909 0.0000
vt 0.4566 0.5069 0.0000
vt 0.4573 0.4889 0.0000
vt 0.4182 0.5020 0.0000
vt 0.4262 0.4815 0.0000
vt 0.4129 0.4998 0.0000
vt 0.4203 0.4789 0.0000
vt 0.4689 0.4568 0.0000
vt 0.4617 0.4513 0.0000
vt 0.4800 0.4436 0.0000
vt 0.4799 0.4519 0.0000
vt 0.4585 0.4528 0.0000
vt 0.4441 0.4471 0.0000
vt 0.4444 0.4491 0.0000
vt 0.3348 0.4485 0.0000
vt 0.3371 0.4466 0.0000
vt 0.3202 0.4531 0.0000
vt 0.3179 0.4518 0.0000
vt 0.3187 0.4950 0.0000
vt 0.3116 0.4990 0.0000
vt 0.3233 0.5188 0.0000
vt 0.3142 0.5242 0.0000
vt 0.3608 0.5068 0.0000
vt 0.3529 0.4848 0.0000
vt 0.3593 0.4830 0.0000
vt 0.3683 0.5052 0.0000
vt 0.3163 0.5322 0.0000
vt 0.3480 0.6187 0.0000
vt 0.3663 0.5138 0.0000
vt 0.0000 0.0000 0.0000
# 144 texture coords

o mordecay_game_play_001
g mordecay_game_play_001
usemtl mordecai_001
s 1
f 1/1/1 2/2/2 3/3/3 
f 4/4/4 5/5/5 6/6/6 
f 7/7/7 6/6/6 5/5/5 
f 6/6/6 8/8/8 4/4/4 
f 9/9/9 4/4/4 8/8/8 
f 5/5/5 10/10/10 7/7/7 
f 11/11/11 7/7/7 10/10/10 
f 10/10/10 12/12/12 11/11/11 
f 13/13/13 11/11/11 12/12/12 
f 12/12/12 10/10/10 14/14/14 
f 15/15/15 14/14/14 10/10/10 
f 10/10/10 5/5/5 15/15/15 
f 4/4/4 15/15/15 5/5/5 
f 4/4/4 9/9/9 15/15/15 
f 15/15/15 16/16/16 14/14/14 
f 16/16/16 15/15/15 9/9/9 
f 9/9/9 8/8/8 16/16/16 
f 17/17/17 14/14/14 16/16/16 
f 16/16/16 18/18/18 17/17/17 
f 18/18/18 16/16/16 8/8/8 
f 19/19/19 17/17/17 18/18/18 
f 12/12/12 20/20/20 13/13/13 
f 21/21/21 13/13/13 20/20/20 
f 14/14/14 22/22/22 12/12/12 
f 20/20/20 12/12/12 22/22/22 
f 14/14/14 17/17/17 22/22/22 
f 20/20/20 22/22/22 23/23/23 
f 22/22/22 24/24/24 23/23/23 
f 24/24/24 22/22/22 17/17/17 
f 17/17/17 19/19/19 24/24/24 
f 24/24/24 25/25/25 23/23/23 
f 26/26/26 23/23/23 25/25/25 
f 23/23/23 26/26/26 27/27/27 
f 28/28/28 27/27/27 26/26/26 
f 27/27/27 28/28/28 29/29/29 
f 27/27/27 29/29/29 30/30/30 
f 31/31/31 30/30/30 29/29/29 
f 30/30/30 31/31/31 32/32/32 
f 33/33/33 32/32/32 31/31/31 
f 34/34/34 29/29/29 28/28/28 
f 32/32/32 35/35/35 30/30/30 
f 36/36/36 30/30/30 35/35/35 
f 30/30/30 36/36/36 27/27/27 
f 35/35/35 37/37/37 36/36/36 
f 38/38/38 36/36/36 37/37/37 
f 36/36/36 23/39/39 27/27/27 
f 29/29/29 39/40/40 31/31/31 
f 29/29/29 34/34/34 39/40/40 
f 40/41/41 31/31/31 39/40/40 
f 31/31/31 40/41/41 33/33/33 
f 39/40/40 1/42/42 40/41/41 
f 3/43/43 40/41/41 1/42/42 
f 39/40/40 41/44/44 1/42/42 
f 41/44/44 39/40/40 34/34/34 
f 2/45/45 1/42/42 41/44/44 
f 41/44/44 42/46/46 2/45/45 
f 43/47/47 2/45/45 42/46/46 
f 34/34/34 44/48/48 41/44/44 
f 42/46/46 41/44/44 44/48/48 
f 44/48/48 34/34/34 45/49/49 
f 28/28/28 45/49/49 34/34/34 
f 37/37/37 35/35/35 46/50/50 
f 47/51/51 46/50/50 35/35/35 
f 35/35/35 32/32/32 47/51/51 
f 48/52/52 47/51/51 32/32/32 
f 48/52/52 49/53/53 47/51/51 
f 49/53/53 48/52/52 50/54/54 
f 51/55/55 50/54/54 48/52/52 
f 49/53/53 50/54/54 52/56/56 
f 53/57/57 52/56/56 50/54/54 
f 53/57/57 44/58/48 52/56/56 
f 45/59/49 52/56/56 44/58/48 
f 54/60/58 47/51/51 49/53/53 
f 47/51/51 54/60/58 46/50/50 
f 50/54/54 51/55/55 55/61/59 
f 50/54/54 55/61/59 53/57/57 
f 56/62/60 55/61/59 51/55/55 
f 55/61/59 56/62/60 57/63/61 
f 58/64/62 57/63/61 56/62/60 
f 58/64/62 56/62/60 59/65/63 
f 60/66/64 59/65/63 56/62/60 
f 56/62/60 51/55/55 60/66/64 
f 33/33/33 60/66/64 51/55/55 
f 51/55/55 48/52/52 33/33/33 
f 52/56/56 45/59/49 61/67/65 
f 52/56/56 61/67/65 49/53/53 
f 54/60/58 49/53/53 61/67/65 
f 62/68/66 61/67/65 45/59/49 
f 61/67/65 62/68/66 63/69/67 
f 61/67/65 63/69/67 54/60/58 
f 64/70/68 63/69/67 62/68/66 
f 65/71/69 54/60/58 63/69/67 
f 55/61/59 57/63/61 66/72/70 
f 67/73/71 66/72/70 57/63/61 
f 66/72/70 53/57/57 55/61/59 
f 59/65/63 60/66/64 3/43/43 
f 40/41/41 3/43/43 60/66/64 
f 60/66/64 33/33/33 40/41/41 
f 67/73/71 43/74/47 66/72/70 
f 42/75/46 66/72/70 43/74/47 
f 66/72/70 42/75/46 53/57/57 
f 44/58/48 53/57/57 42/75/46 
f 63/69/67 64/70/68 68/76/72 
f 69/77/73 68/76/72 64/70/68 
f 68/76/72 69/77/73 70/78/74 
f 71/79/75 70/78/74 69/77/73 
f 70/78/74 72/80/76 68/76/72 
f 73/81/77 68/76/72 72/80/76 
f 73/81/77 72/80/76 74/82/78 
f 75/83/79 74/82/78 72/80/76 
f 70/78/74 71/79/75 76/84/80 
f 77/85/81 76/84/80 71/79/75 
f 77/85/81 78/86/82 76/84/80 
f 79/87/83 76/84/80 78/86/82 
f 76/84/80 79/87/83 70/78/74 
f 72/80/76 70/78/74 79/87/83 
f 72/80/76 79/87/83 75/83/79 
f 78/86/82 75/83/79 79/87/83 
f 68/76/72 73/81/77 63/69/67 
f 65/71/69 63/69/67 73/81/77 
f 74/82/78 80/88/84 73/81/77 
f 65/71/69 73/81/77 80/88/84 
f 65/71/69 80/88/84 81/89/85 
f 19/90/86 81/89/85 80/88/84 
f 19/90/86 18/91/87 81/89/85 
f 82/92/88 81/89/85 18/91/87 
f 82/92/88 83/93/89 81/89/85 
f 84/94/90 81/89/85 83/93/89 
f 81/89/85 84/94/90 65/71/69 
f 83/93/89 85/95/91 84/94/90 
f 86/96/92 84/94/90 85/95/91 
f 86/96/92 85/95/91 13/97/13 
f 11/98/11 13/97/13 85/95/91 
f 85/95/91 83/93/89 87/99/93 
f 85/95/91 87/99/93 11/98/11 
f 88/100/94 87/99/93 83/93/89 
f 83/93/89 82/92/88 88/100/94 
f 87/99/93 88/100/94 7/101/95 
f 7/101/95 11/98/11 87/99/93 
f 6/102/96 7/101/95 88/100/94 
f 88/100/94 89/103/97 6/102/96 
f 82/92/88 18/91/87 89/103/97 
f 89/103/97 88/100/94 82/92/88 
f 8/104/8 6/102/96 89/103/97 
f 8/104/8 89/103/97 18/91/87 
f 84/94/90 86/96/92 90/105/98 
f 91/106/99 90/105/98 86/96/92 
f 91/106/99 54/60/58 90/105/98 
f 91/106/99 46/50/50 54/60/58 
f 65/71/69 90/105/98 54/60/58 
f 90/105/98 65/71/69 84/94/90 
f 13/97/13 21/107/100 86/96/92 
f 91/106/99 86/96/92 21/107/100 
f 91/106/99 21/107/100 92/108/101 
f 93/109/102 92/108/101 21/107/100 
f 92/108/101 93/109/102 94/110/103 
f 95/111/104 94/110/103 93/109/102 
f 94/110/103 96/112/105 92/108/101 
f 97/113/106 92/108/101 96/112/105 
f 92/108/101 97/113/106 91/106/99 
f 46/50/50 91/106/99 97/113/106 
f 97/113/106 96/112/105 98/114/107 
f 99/115/108 98/114/107 96/112/105 
f 98/114/107 99/115/108 100/116/109 
f 101/117/110 100/116/109 99/115/108 
f 100/116/109 101/117/110 102/118/111 
f 103/119/112 102/118/111 101/117/110 
f 102/118/111 103/119/112 93/120/113 
f 95/121/104 93/120/113 103/119/112 
f 96/112/105 104/122/114 99/115/108 
f 96/112/105 94/110/103 104/122/114 
f 105/123/115 99/115/108 104/122/114 
f 99/115/108 105/123/115 101/117/110 
f 105/123/115 104/122/114 106/124/116 
f 107/125/117 106/124/116 104/122/114 
f 106/124/116 107/125/117 95/111/104 
f 94/110/103 95/111/104 107/125/117 
f 107/125/117 104/122/114 94/110/103 
f 108/126/118 101/117/110 105/123/115 
f 101/117/110 108/126/118 103/119/112 
f 105/123/115 106/127/116 108/126/118 
f 109/128/119 108/126/118 106/127/116 
f 109/128/119 103/119/112 108/126/118 
f 103/119/112 109/128/119 95/121/104 
f 106/127/116 95/121/104 109/128/119 
f 98/114/107 37/37/37 97/113/106 
f 100/116/109 38/38/38 98/114/107 
f 100/116/109 102/118/111 38/38/38 
f 37/37/37 98/114/107 38/38/38 
f 20/20/20 38/38/38 102/118/111 
f 38/38/38 20/20/20 36/36/36 
f 23/39/39 36/36/36 20/20/20 
f 46/50/50 97/113/106 37/37/37 
f 20/20/20 102/118/111 21/21/21 
f 93/120/113 21/21/21 102/118/111 
f 110/129/120 78/130/82 111/131/121 
f 77/132/122 111/131/121 78/130/82 
f 111/131/121 77/132/122 112/133/123 
f 71/134/124 112/133/123 77/132/122 
f 112/133/123 71/134/124 113/135/125 
f 69/136/73 113/135/125 71/134/124 
f 113/135/125 114/137/126 112/133/123 
f 115/138/127 112/133/123 114/137/126 
f 110/129/120 115/138/127 78/130/82 
f 110/129/120 111/131/121 115/138/127 
f 112/133/123 115/138/127 111/131/121 
f 115/138/127 114/137/126 75/139/128 
f 75/139/128 78/130/82 115/138/127 
f 74/140/129 75/139/128 114/137/126 
f 113/135/125 69/136/73 25/25/25 
f 64/141/68 25/25/25 69/136/73 
f 25/25/25 64/141/68 26/26/26 
f 62/142/66 26/26/26 64/141/68 
f 26/26/26 62/142/66 28/28/28 
f 45/49/49 28/28/28 62/142/66 
f 114/137/126 24/24/24 74/140/129 
f 114/137/126 113/135/125 24/24/24 
f 25/25/25 24/24/24 113/135/125 
f 80/143/130 24/24/24 19/19/19 
f 32/32/32 33/33/33 48/52/52 
s off
f 8/144/131 8/144/131 6/144/131 
f 8/144/132 7/144/132 6/144/132 
f 18/144/131 18/144/131 8/144/131 
f 18/144/133 7/144/133 8/144/133 
f 18/144/134 11/144/134 7/144/134 
f 71/144/135 75/144/135 77/144/135 
f 74/144/136 75/144/136 71/144/136 
f 19/144/131 19/144/131 18/144/131 
f 19/144/137 11/144/137 18/144/137 
f 69/144/138 74/144/138 71/144/138 
f 95/144/131 95/144/131 106/144/131 
f 19/144/139 13/144/139 11/144/139 
f 80/144/140 74/144/140 69/144/140 
f 64/144/141 80/144/141 69/144/141 
f 67/144/142 1/144/142 2/144/142 
f 93/144/131 93/144/131 95/144/131 
f 62/144/143 80/144/143 64/144/143 
f 43/144/144 67/144/144 2/144/144 
f 1/144/145 67/144/145 57/144/145 
f 3/144/146 1/144/146 57/144/146 
f 57/144/147 59/144/147 3/144/147 
f 58/144/148 59/144/148 57/144/148 
f 75/144/149 78/144/149 77/144/149 
# 243 faces

