# This file uses centimeters as units for non-parametric coordinates.

mtllib rio.mtl
g default
v -13.115030 -0.079233 11.919877
v -6.860543 -0.079233 11.919877
v -13.115030 0.190635 11.919877
v -6.860543 0.190635 11.919877
v -13.115030 0.190635 -11.919877
v -6.860543 0.190635 -11.919877
v -13.115030 -0.079233 -11.919877
v -6.860543 -0.079233 -11.919877
vt -0.000000 0.000000
vt 1.000000 0.000000
vt 0.948297 0.000008
vt 0.624569 0.000008
vt 0.948297 1.000008
vt 0.624569 1.000008
vt 1.000000 1.000000
vt -0.000000 1.000000
vn 0.000000 0.000000 1.000000
vn 0.000000 0.000000 1.000000
vn 0.000000 0.000000 1.000000
vn 0.000000 0.000000 1.000000
vn 0.000000 1.000000 0.000000
vn 0.000000 1.000000 0.000000
vn 0.000000 1.000000 0.000000
vn 0.000000 1.000000 0.000000
vn 0.000000 0.000000 -1.000000
vn 0.000000 0.000000 -1.000000
vn 0.000000 0.000000 -1.000000
vn 0.000000 0.000000 -1.000000
vn 0.000000 -1.000000 0.000000
vn 0.000000 -1.000000 0.000000
vn 0.000000 -1.000000 0.000000
vn 0.000000 -1.000000 0.000000
vn 1.000000 0.000000 0.000000
vn 1.000000 0.000000 0.000000
vn 1.000000 0.000000 0.000000
vn 1.000000 0.000000 0.000000
vn -1.000000 0.000000 0.000000
vn -1.000000 0.000000 0.000000
vn -1.000000 0.000000 0.000000
vn -1.000000 0.000000 0.000000
s off
g pasted__pCube1 group4
usemtl lambert5SG
f 1/1/1 2/2/2 4/3/3 3/4/4
f 3/4/5 4/3/6 6/5/7 5/6/8
f 5/6/9 6/5/10 8/7/11 7/8/12
f 7/8/13 8/7/14 2/2/15 1/1/16
f 2/2/17 8/7/18 6/5/19 4/3/20
f 7/8/21 1/1/22 3/4/23 5/6/24
